M48
;GenerationSoftware,Autodesk,EAGLE,9.6.2*%
;CreationDate,2023-10-28T19:23:03Z*%
FMAT,2
ICI,OFF
METRIC,TZ,000.000
T5C0.350
T4C0.813
T3C1.000
T2C1.016
T1C2.500
%
G90
M71
T1
X7244Y32512
X11044Y32512
T2
X5588Y9652
X5588Y7112
X5588Y4572
X10414Y42672
X10414Y45212
X5842Y49530
X5842Y46990
X5842Y44450
X3302Y33274
X3302Y30734
X3302Y28194
X8128Y17272
X8128Y14732
X8128Y12192
X8128Y9652
X8128Y7112
X8128Y4572
X5588Y14732
X5588Y12192
X5588Y17272
T3
X7874Y35262
X7874Y29762
X10414Y29762
X10414Y35262
X11594Y27862
T4
X16764Y27711
X16764Y32741
X14224Y30226
T5
X13462Y17526
X15748Y17460
X14478Y17526
X12446Y9906
X14605Y4572
X13335Y4572
X16891Y15494
X15748Y14605
X14986Y13208
X14470Y13716
X12700Y12954
X5842Y42926
X12700Y42672
X13970Y42926
X3302Y26924
X15494Y27686
X4572Y23876
X10160Y23876
X14224Y28956
X9271Y9652
X16256Y10922
X16256Y11938
X15723Y7544
X13081Y9525
X16891Y4572
M30