G04 EAGLE Gerber RS-274X export*
G75*
%MOMM*%
%FSLAX34Y34*%
%LPD*%
%INSilkscreen Bottom*%
%IPPOS*%
%AMOC8*
5,1,8,0,0,1.08239X$1,22.5*%
G01*
%ADD10R,0.027938X1.285238*%
%ADD11R,0.027938X1.341119*%
%ADD12R,0.027938X1.369056*%
%ADD13R,0.027938X0.670556*%
%ADD14R,0.027938X0.614675*%
%ADD15R,0.027938X0.642619*%
%ADD16R,0.027938X0.586738*%
%ADD17R,0.027938X0.614681*%
%ADD18R,0.027938X0.530856*%
%ADD19R,0.027938X0.558800*%
%ADD20R,0.027938X0.698500*%
%ADD21R,0.027938X0.754381*%
%ADD22R,0.027938X0.027938*%
%ADD23R,0.027938X0.810262*%
%ADD24R,0.027938X1.061719*%
%ADD25R,0.027938X1.117600*%
%ADD26R,0.027938X1.145538*%
%ADD27R,0.027938X1.201419*%
%ADD28R,0.027938X1.257300*%
%ADD29R,0.027938X1.369063*%
%ADD30R,0.027938X2.179319*%
%ADD31R,0.027938X2.235200*%
%ADD32R,0.027938X2.263138*%
%ADD33R,0.027938X2.291081*%
%ADD34R,0.027938X0.419100*%
%ADD35R,0.027938X1.313181*%
%ADD36R,0.027938X0.391156*%
%ADD37R,0.027938X0.363219*%
%ADD38R,0.027938X0.335281*%
%ADD39R,0.027938X0.307338*%
%ADD40R,0.027938X0.502919*%
%ADD41R,0.027938X0.474975*%
%ADD42R,0.027938X0.251456*%
%ADD43R,0.027938X0.447038*%
%ADD44R,0.027938X0.391163*%
%ADD45R,0.027938X1.229356*%
%ADD46R,0.027938X0.838200*%
%ADD47R,0.027938X0.894075*%
%ADD48R,0.027938X0.949956*%
%ADD49R,0.027938X0.279400*%
%ADD50R,0.027938X1.173481*%
%ADD51R,0.027938X1.424937*%
%ADD52R,0.027938X0.195575*%
%ADD53R,0.027938X0.167637*%
%ADD54R,0.027938X0.111763*%
%ADD55R,0.027938X0.139700*%
%ADD56R,0.027938X0.111756*%
%ADD57R,0.027938X1.536700*%
%ADD58R,0.027938X1.480819*%
%ADD59R,0.027938X0.530863*%
%ADD60R,0.027938X0.223519*%
%ADD61R,0.027938X0.195581*%
%ADD62R,0.027938X0.251463*%
%ADD63R,0.027938X0.726438*%
%ADD64R,0.027938X1.592581*%
%ADD65R,0.027938X0.474981*%
%ADD66R,0.027938X0.754375*%
%ADD67R,0.027938X0.055881*%
%ADD68R,0.027938X0.055875*%
%ADD69R,0.027938X1.648456*%
%ADD70R,0.027938X1.676400*%
%ADD71R,0.027938X1.704338*%
%ADD72R,0.027938X1.033781*%
%ADD73R,0.027938X0.335275*%
%ADD74R,0.027938X0.922019*%
%ADD75R,0.027938X1.005837*%
%ADD76R,0.027938X1.508756*%
%ADD77R,0.027938X1.089662*%
%ADD78R,0.027938X1.452881*%
%ADD79R,0.027938X1.173475*%
%ADD80R,0.027938X1.397000*%
%ADD81R,0.027938X2.319019*%
%ADD82R,0.027938X0.083819*%
%ADD83R,0.027938X2.374900*%
%ADD84R,0.027938X0.894081*%
%ADD85R,0.027938X0.866138*%
%ADD86R,0.027938X0.782319*%
%ADD87R,0.027938X0.670563*%
%ADD88R,0.502919X0.027938*%
%ADD89R,0.139700X0.027938*%
%ADD90R,0.307338X0.027938*%
%ADD91R,0.111756X0.027938*%
%ADD92R,0.251463X0.027938*%
%ADD93C,0.127000*%


D10*
X210668Y508927D03*
X210388Y508927D03*
D11*
X210109Y508927D03*
D12*
X209829Y509067D03*
D13*
X209550Y505295D03*
D14*
X209550Y512839D03*
D15*
X209271Y504876D03*
D16*
X209271Y513258D03*
D17*
X208991Y504736D03*
D18*
X208991Y513537D03*
D14*
X208712Y504457D03*
D19*
X208712Y513677D03*
D16*
X208432Y504317D03*
D19*
X208432Y513956D03*
D14*
X208153Y504177D03*
D19*
X208153Y513956D03*
D14*
X207874Y504177D03*
D16*
X207874Y514096D03*
D15*
X207594Y504038D03*
D19*
X207594Y514236D03*
D13*
X207315Y503898D03*
D16*
X207315Y514375D03*
D13*
X207035Y503898D03*
D14*
X207035Y514236D03*
D20*
X206756Y503758D03*
D15*
X206756Y514375D03*
D20*
X206477Y503758D03*
X206477Y514375D03*
X206197Y503479D03*
X206197Y514375D03*
X205918Y503199D03*
D21*
X205918Y514375D03*
D13*
X205638Y503060D03*
D22*
X205638Y508229D03*
D23*
X205638Y514096D03*
D13*
X205359Y502780D03*
D24*
X205359Y513118D03*
D15*
X205080Y502641D03*
D25*
X205080Y513118D03*
D15*
X204800Y502361D03*
D26*
X204800Y512978D03*
D15*
X204521Y502082D03*
D27*
X204521Y512978D03*
D28*
X204241Y512978D03*
D10*
X203962Y512839D03*
D11*
X203683Y512839D03*
D29*
X203403Y512699D03*
D30*
X203124Y508927D03*
X202844Y508927D03*
D31*
X202565Y508927D03*
D32*
X202286Y509067D03*
D33*
X202006Y508927D03*
D34*
X201727Y499567D03*
D35*
X201727Y514096D03*
D36*
X201447Y499148D03*
D10*
X201447Y514236D03*
D36*
X201168Y498869D03*
D10*
X201168Y514515D03*
D37*
X200889Y498729D03*
D10*
X200889Y514795D03*
D37*
X200609Y498450D03*
D18*
X200609Y504596D03*
D28*
X200609Y514934D03*
D38*
X200330Y498310D03*
D16*
X200330Y504596D03*
X200330Y511861D03*
D19*
X200330Y518706D03*
D39*
X200050Y498170D03*
D15*
X200050Y504596D03*
D40*
X200050Y511721D03*
D41*
X200050Y518846D03*
D42*
X199771Y498170D03*
D20*
X199771Y504596D03*
D43*
X199771Y511721D03*
D44*
X199771Y518986D03*
D21*
X199492Y504596D03*
D36*
X199492Y511721D03*
D44*
X199492Y518986D03*
D45*
X199492Y529323D03*
D46*
X199212Y504457D03*
D38*
X199212Y511721D03*
X199212Y518986D03*
D28*
X199212Y529184D03*
D47*
X198933Y504457D03*
D39*
X198933Y511861D03*
D38*
X198933Y518986D03*
D35*
X198933Y529184D03*
D48*
X198653Y504457D03*
D49*
X198653Y518986D03*
D12*
X198653Y529184D03*
D50*
X198374Y503619D03*
D42*
X198374Y518846D03*
D12*
X198374Y529184D03*
D27*
X198095Y503758D03*
D42*
X198095Y518846D03*
D51*
X198095Y529184D03*
D52*
X197815Y418262D03*
D53*
X197815Y443268D03*
X197815Y468135D03*
D27*
X197815Y504038D03*
D42*
X197815Y518566D03*
D51*
X197815Y529184D03*
D54*
X197536Y405829D03*
D55*
X197536Y413233D03*
D34*
X197536Y418262D03*
D55*
X197536Y425526D03*
X197536Y428879D03*
D56*
X197536Y436004D03*
D36*
X197536Y443268D03*
D55*
X197536Y448996D03*
X197536Y454304D03*
D56*
X197536Y460032D03*
D34*
X197536Y467995D03*
D18*
X197536Y476656D03*
D19*
X197536Y483222D03*
D18*
X197536Y490068D03*
D57*
X197536Y505714D03*
D42*
X197536Y518566D03*
D58*
X197536Y529184D03*
D55*
X197256Y405968D03*
D56*
X197256Y413093D03*
D19*
X197256Y418122D03*
D55*
X197256Y425526D03*
D53*
X197256Y429019D03*
D56*
X197256Y436004D03*
D40*
X197256Y443268D03*
D55*
X197256Y449275D03*
D56*
X197256Y454444D03*
X197256Y460032D03*
D19*
X197256Y467855D03*
D18*
X197256Y476656D03*
D59*
X197256Y483362D03*
D40*
X197256Y489928D03*
D57*
X197256Y505993D03*
D60*
X197256Y518427D03*
D57*
X197256Y529184D03*
D56*
X196977Y406108D03*
D55*
X196977Y412953D03*
D15*
X196977Y418262D03*
D55*
X196977Y425526D03*
D61*
X196977Y429158D03*
D56*
X196977Y436004D03*
D17*
X196977Y443268D03*
D55*
X196977Y449275D03*
X196977Y454304D03*
D56*
X196977Y460032D03*
D15*
X196977Y467995D03*
D18*
X196977Y476656D03*
D19*
X196977Y483222D03*
D40*
X196977Y489928D03*
D19*
X196977Y501383D03*
D21*
X196977Y509905D03*
D60*
X196977Y518147D03*
D57*
X196977Y529184D03*
D55*
X196698Y406248D03*
D54*
X196698Y412814D03*
D61*
X196698Y416027D03*
D62*
X196698Y420497D03*
D55*
X196698Y425526D03*
D61*
X196698Y429158D03*
D56*
X196698Y436004D03*
D60*
X196698Y441033D03*
X196698Y445503D03*
D55*
X196698Y449555D03*
D56*
X196698Y454444D03*
X196698Y460032D03*
D60*
X196698Y465900D03*
D42*
X196698Y470230D03*
D55*
X196698Y478612D03*
X196698Y485318D03*
D56*
X196698Y491884D03*
D18*
X196698Y501244D03*
D63*
X196698Y510324D03*
D42*
X196698Y518008D03*
D64*
X196698Y529184D03*
D56*
X196418Y406387D03*
D54*
X196418Y412814D03*
X196418Y415608D03*
D52*
X196418Y421056D03*
D55*
X196418Y425526D03*
D60*
X196418Y429298D03*
D56*
X196418Y436004D03*
D52*
X196418Y440614D03*
D61*
X196418Y445922D03*
D55*
X196418Y449555D03*
D56*
X196418Y454444D03*
X196418Y460032D03*
X196418Y465341D03*
D61*
X196418Y470789D03*
D56*
X196418Y478752D03*
D55*
X196418Y485318D03*
D56*
X196418Y491884D03*
D65*
X196418Y501244D03*
D66*
X196418Y510743D03*
D49*
X196418Y517589D03*
D64*
X196418Y529184D03*
D55*
X196139Y406527D03*
X196139Y412674D03*
D67*
X196139Y415328D03*
D52*
X196139Y421335D03*
D55*
X196139Y425526D03*
D42*
X196139Y429438D03*
D56*
X196139Y436004D03*
D53*
X196139Y440195D03*
X196139Y446342D03*
D55*
X196139Y449834D03*
D56*
X196139Y454444D03*
X196139Y460032D03*
D68*
X196139Y465061D03*
D53*
X196139Y471208D03*
D56*
X196139Y478752D03*
D55*
X196139Y485318D03*
D56*
X196139Y491884D03*
D43*
X196139Y501104D03*
D50*
X196139Y513118D03*
D69*
X196139Y529184D03*
D56*
X195859Y406667D03*
X195859Y412534D03*
D55*
X195859Y421615D03*
X195859Y425526D03*
D49*
X195859Y429578D03*
D56*
X195859Y436004D03*
D53*
X195859Y439915D03*
X195859Y446621D03*
D55*
X195859Y450113D03*
D56*
X195859Y454444D03*
X195859Y460032D03*
D53*
X195859Y471488D03*
D56*
X195859Y478752D03*
D55*
X195859Y485318D03*
D56*
X195859Y491884D03*
D34*
X195859Y501244D03*
D26*
X195859Y512978D03*
D70*
X195859Y529323D03*
D55*
X195580Y406806D03*
X195580Y412394D03*
X195580Y421894D03*
X195580Y425526D03*
D56*
X195580Y428739D03*
D53*
X195580Y430416D03*
D56*
X195580Y436004D03*
D55*
X195580Y439776D03*
X195580Y446761D03*
X195580Y450113D03*
D56*
X195580Y454444D03*
X195580Y460032D03*
D55*
X195580Y471627D03*
D56*
X195580Y478752D03*
D55*
X195580Y485318D03*
D56*
X195580Y491884D03*
D37*
X195580Y501244D03*
D14*
X195580Y515353D03*
D71*
X195580Y529184D03*
D56*
X195301Y406946D03*
X195301Y412255D03*
D55*
X195301Y421894D03*
X195301Y425526D03*
D56*
X195301Y428739D03*
D53*
X195301Y430695D03*
D56*
X195301Y436004D03*
D55*
X195301Y439496D03*
X195301Y447040D03*
X195301Y450393D03*
D56*
X195301Y454444D03*
X195301Y460032D03*
D55*
X195301Y471907D03*
D56*
X195301Y478752D03*
D55*
X195301Y485318D03*
D56*
X195301Y491884D03*
D37*
X195301Y501244D03*
D16*
X195301Y515493D03*
D72*
X195301Y525551D03*
D20*
X195301Y534492D03*
D15*
X195021Y409600D03*
D55*
X195021Y422173D03*
X195021Y425526D03*
D56*
X195021Y428739D03*
D53*
X195021Y430975D03*
D56*
X195021Y436004D03*
D54*
X195021Y439357D03*
D55*
X195021Y447040D03*
X195021Y450672D03*
D56*
X195021Y454444D03*
X195021Y460032D03*
D55*
X195021Y471907D03*
D56*
X195021Y478752D03*
D55*
X195021Y485318D03*
D56*
X195021Y491884D03*
D73*
X195021Y501383D03*
D59*
X195021Y515493D03*
D48*
X195021Y525132D03*
D16*
X195021Y535051D03*
D14*
X194742Y409461D03*
D56*
X194742Y422313D03*
D55*
X194742Y425526D03*
D56*
X194742Y428739D03*
D55*
X194742Y431114D03*
D56*
X194742Y436004D03*
D55*
X194742Y439217D03*
X194742Y447319D03*
D53*
X194742Y450812D03*
D56*
X194742Y454444D03*
X194742Y460032D03*
X194742Y472046D03*
X194742Y478752D03*
D55*
X194742Y485318D03*
D56*
X194742Y491884D03*
D73*
X194742Y501383D03*
D65*
X194742Y515493D03*
D48*
X194742Y524853D03*
D16*
X194742Y535330D03*
X194462Y409600D03*
D55*
X194462Y422453D03*
X194462Y425526D03*
D56*
X194462Y428739D03*
D55*
X194462Y431394D03*
D56*
X194462Y436004D03*
D55*
X194462Y439217D03*
X194462Y447319D03*
D53*
X194462Y451091D03*
D56*
X194462Y454444D03*
X194462Y460032D03*
D55*
X194462Y472186D03*
D56*
X194462Y478752D03*
D55*
X194462Y485318D03*
D56*
X194462Y491884D03*
D73*
X194462Y501663D03*
D65*
X194462Y509626D03*
D43*
X194462Y515633D03*
D74*
X194462Y524713D03*
D19*
X194462Y535470D03*
D16*
X194183Y409600D03*
D55*
X194183Y422453D03*
X194183Y425526D03*
D56*
X194183Y428739D03*
D55*
X194183Y431673D03*
D56*
X194183Y436004D03*
X194183Y439077D03*
D55*
X194183Y447319D03*
D53*
X194183Y451371D03*
D56*
X194183Y454444D03*
X194183Y460032D03*
D55*
X194183Y472186D03*
D56*
X194183Y478752D03*
D55*
X194183Y485318D03*
D56*
X194183Y491884D03*
D39*
X194183Y501802D03*
D40*
X194183Y509486D03*
D36*
X194183Y515633D03*
D74*
X194183Y524434D03*
D19*
X194183Y535750D03*
D55*
X193904Y407645D03*
X193904Y411556D03*
X193904Y422453D03*
X193904Y425526D03*
D56*
X193904Y428739D03*
D55*
X193904Y431952D03*
D56*
X193904Y436004D03*
X193904Y439077D03*
X193904Y447459D03*
D53*
X193904Y451650D03*
D55*
X193904Y454304D03*
D56*
X193904Y460032D03*
X193904Y472326D03*
X193904Y478752D03*
D55*
X193904Y485318D03*
D56*
X193904Y491884D03*
D38*
X193904Y501942D03*
D18*
X193904Y509626D03*
D73*
X193904Y515633D03*
D48*
X193904Y524294D03*
D16*
X193904Y535889D03*
D55*
X193624Y407645D03*
X193624Y411556D03*
X193624Y422453D03*
X193624Y425526D03*
D56*
X193624Y428739D03*
D53*
X193624Y432092D03*
D56*
X193624Y436004D03*
D55*
X193624Y438937D03*
D56*
X193624Y447459D03*
D36*
X193624Y453047D03*
D56*
X193624Y460032D03*
X193624Y472326D03*
D40*
X193624Y476796D03*
D55*
X193624Y485318D03*
D65*
X193624Y490068D03*
D38*
X193624Y502222D03*
D14*
X193624Y509765D03*
D16*
X193624Y535889D03*
D56*
X193345Y407784D03*
D54*
X193345Y411417D03*
X193345Y422593D03*
D55*
X193345Y425526D03*
D56*
X193345Y428739D03*
D53*
X193345Y432372D03*
D56*
X193345Y436004D03*
D55*
X193345Y438937D03*
D56*
X193345Y447459D03*
D36*
X193345Y453047D03*
D56*
X193345Y460032D03*
X193345Y472326D03*
D40*
X193345Y476796D03*
D55*
X193345Y485318D03*
D65*
X193345Y490068D03*
D37*
X193345Y502361D03*
D13*
X193345Y509765D03*
D17*
X193345Y536029D03*
D55*
X193065Y407924D03*
X193065Y411277D03*
X193065Y422453D03*
X193065Y425526D03*
D56*
X193065Y428739D03*
D53*
X193065Y432651D03*
D56*
X193065Y436004D03*
D55*
X193065Y438937D03*
D56*
X193065Y447459D03*
D43*
X193065Y452768D03*
D56*
X193065Y460032D03*
X193065Y472326D03*
D40*
X193065Y476796D03*
D55*
X193065Y485318D03*
D65*
X193065Y490068D03*
D45*
X193065Y506971D03*
D17*
X193065Y536029D03*
D56*
X192786Y408064D03*
X192786Y411137D03*
D55*
X192786Y422453D03*
X192786Y425526D03*
D56*
X192786Y428739D03*
D53*
X192786Y432930D03*
D56*
X192786Y436004D03*
D55*
X192786Y438937D03*
D56*
X192786Y447459D03*
D65*
X192786Y452628D03*
D56*
X192786Y460032D03*
X192786Y472326D03*
D40*
X192786Y476796D03*
D55*
X192786Y485318D03*
D65*
X192786Y490068D03*
D28*
X192786Y507111D03*
D15*
X192786Y536169D03*
D55*
X192507Y408203D03*
D56*
X192507Y411137D03*
D55*
X192507Y422453D03*
X192507Y425526D03*
D56*
X192507Y428739D03*
D55*
X192507Y433070D03*
D56*
X192507Y436004D03*
X192507Y439077D03*
D55*
X192507Y447319D03*
D53*
X192507Y450812D03*
D56*
X192507Y454444D03*
X192507Y460032D03*
D55*
X192507Y472186D03*
D56*
X192507Y478752D03*
D55*
X192507Y485318D03*
D56*
X192507Y491884D03*
D75*
X192507Y524015D03*
D13*
X192507Y536308D03*
D55*
X192227Y408203D03*
X192227Y410997D03*
X192227Y422453D03*
X192227Y425526D03*
D56*
X192227Y428739D03*
D55*
X192227Y433349D03*
D56*
X192227Y436004D03*
X192227Y439077D03*
D55*
X192227Y447319D03*
X192227Y450672D03*
D56*
X192227Y454444D03*
X192227Y460032D03*
D55*
X192227Y472186D03*
D56*
X192227Y478752D03*
D55*
X192227Y485318D03*
D56*
X192227Y491884D03*
D76*
X192227Y508927D03*
D72*
X192227Y523875D03*
D20*
X192227Y536169D03*
D56*
X191948Y408343D03*
X191948Y410858D03*
X191948Y422313D03*
D55*
X191948Y425526D03*
D56*
X191948Y428739D03*
D55*
X191948Y433629D03*
D56*
X191948Y436004D03*
D55*
X191948Y439217D03*
X191948Y447319D03*
X191948Y450393D03*
D56*
X191948Y454444D03*
X191948Y460032D03*
D55*
X191948Y472186D03*
D56*
X191948Y478752D03*
D55*
X191948Y485318D03*
D56*
X191948Y491884D03*
D76*
X191948Y508927D03*
D77*
X191948Y523875D03*
D63*
X191948Y536308D03*
D55*
X191668Y408483D03*
X191668Y410718D03*
X191668Y422173D03*
X191668Y425526D03*
D56*
X191668Y428739D03*
D55*
X191668Y433908D03*
D56*
X191668Y436004D03*
D55*
X191668Y439217D03*
D56*
X191668Y447180D03*
D55*
X191668Y450393D03*
D56*
X191668Y454444D03*
X191668Y460032D03*
D55*
X191668Y471907D03*
D56*
X191668Y478752D03*
D55*
X191668Y485318D03*
D56*
X191668Y491884D03*
D78*
X191668Y508927D03*
D25*
X191668Y524015D03*
D21*
X191668Y536169D03*
D54*
X191389Y408623D03*
D56*
X191389Y410578D03*
D55*
X191389Y422173D03*
X191389Y425526D03*
D56*
X191389Y428739D03*
D53*
X191389Y434048D03*
D56*
X191389Y436004D03*
D55*
X191389Y439496D03*
X191389Y447040D03*
X191389Y450393D03*
D56*
X191389Y454444D03*
X191389Y460032D03*
D55*
X191389Y471907D03*
D56*
X191389Y478752D03*
D55*
X191389Y485318D03*
D56*
X191389Y491884D03*
D78*
X191389Y508927D03*
D79*
X191389Y524015D03*
D46*
X191389Y536029D03*
D55*
X191110Y408762D03*
D56*
X191110Y410578D03*
D55*
X191110Y421894D03*
X191110Y425526D03*
D56*
X191110Y428739D03*
D53*
X191110Y434327D03*
D56*
X191110Y436004D03*
D53*
X191110Y439636D03*
X191110Y446900D03*
D55*
X191110Y450393D03*
D56*
X191110Y454444D03*
X191110Y460032D03*
D55*
X191110Y471627D03*
D56*
X191110Y478752D03*
D55*
X191110Y485318D03*
D56*
X191110Y491884D03*
D80*
X191110Y508927D03*
D31*
X191110Y529323D03*
D56*
X190830Y408902D03*
X190830Y410299D03*
D53*
X190830Y421754D03*
D55*
X190830Y425526D03*
D56*
X190830Y428739D03*
D49*
X190830Y435166D03*
D55*
X190830Y439776D03*
D53*
X190830Y446621D03*
D55*
X190830Y450393D03*
D56*
X190830Y454444D03*
X190830Y460032D03*
D53*
X190830Y471488D03*
D56*
X190830Y478752D03*
D55*
X190830Y485318D03*
D56*
X190830Y491884D03*
D12*
X190830Y509067D03*
D32*
X190830Y529184D03*
D42*
X190551Y409600D03*
D22*
X190551Y415188D03*
D53*
X190551Y421475D03*
D55*
X190551Y425526D03*
D56*
X190551Y428739D03*
D42*
X190551Y435305D03*
D55*
X190551Y440055D03*
D53*
X190551Y446342D03*
D55*
X190551Y450393D03*
D56*
X190551Y454444D03*
X190551Y460032D03*
D53*
X190551Y471208D03*
D56*
X190551Y478752D03*
D55*
X190551Y485318D03*
D56*
X190551Y491884D03*
D11*
X190551Y508927D03*
D81*
X190551Y529184D03*
D60*
X190271Y409740D03*
D82*
X190271Y415468D03*
D52*
X190271Y421056D03*
D55*
X190271Y425526D03*
D56*
X190271Y428739D03*
D60*
X190271Y435445D03*
D61*
X190271Y440334D03*
D53*
X190271Y446062D03*
D55*
X190271Y450672D03*
D56*
X190271Y454444D03*
X190271Y460032D03*
D68*
X190271Y465341D03*
D53*
X190271Y470929D03*
D56*
X190271Y478752D03*
D55*
X190271Y485318D03*
D56*
X190271Y491884D03*
D10*
X190271Y508927D03*
D81*
X190271Y529184D03*
D61*
X189992Y409600D03*
D53*
X189992Y415887D03*
D60*
X189992Y420637D03*
D55*
X189992Y425526D03*
D56*
X189992Y428739D03*
D61*
X189992Y435585D03*
D60*
X189992Y440754D03*
X189992Y445783D03*
D53*
X189992Y450812D03*
D56*
X189992Y454444D03*
X189992Y460032D03*
D55*
X189992Y465760D03*
D60*
X189992Y470370D03*
D56*
X189992Y478752D03*
D55*
X189992Y485318D03*
D56*
X189992Y491884D03*
D10*
X189992Y508927D03*
D83*
X189992Y529184D03*
D53*
X189713Y409740D03*
D15*
X189713Y418262D03*
D55*
X189713Y425526D03*
D56*
X189713Y428739D03*
D53*
X189713Y435724D03*
D15*
X189713Y443128D03*
D65*
X189713Y452628D03*
D66*
X189713Y460172D03*
D15*
X189713Y467995D03*
D40*
X189713Y476796D03*
D55*
X189713Y485318D03*
D40*
X189713Y489928D03*
D84*
X189713Y521780D03*
D12*
X189713Y534492D03*
D55*
X189433Y409600D03*
D16*
X189433Y417982D03*
D55*
X189433Y425526D03*
D56*
X189433Y428739D03*
D55*
X189433Y435864D03*
D19*
X189433Y443268D03*
D43*
X189433Y452768D03*
D66*
X189433Y460172D03*
D16*
X189433Y467995D03*
D40*
X189433Y476796D03*
D55*
X189433Y485318D03*
D40*
X189433Y489928D03*
D85*
X189433Y521360D03*
D15*
X189433Y531419D03*
D55*
X189154Y409600D03*
D40*
X189154Y418122D03*
D55*
X189154Y425526D03*
D56*
X189154Y428739D03*
D55*
X189154Y435864D03*
D65*
X189154Y443128D03*
D34*
X189154Y452907D03*
D66*
X189154Y460172D03*
D40*
X189154Y467855D03*
X189154Y476796D03*
D55*
X189154Y485318D03*
D40*
X189154Y489928D03*
D85*
X189154Y521081D03*
D17*
X189154Y531559D03*
D82*
X188874Y409600D03*
D39*
X188874Y418262D03*
D55*
X188874Y425526D03*
D56*
X188874Y428739D03*
X188874Y436004D03*
D38*
X188874Y443268D03*
X188874Y453327D03*
D66*
X188874Y460172D03*
D39*
X188874Y467995D03*
D40*
X188874Y476796D03*
D55*
X188874Y485318D03*
D40*
X188874Y489928D03*
D46*
X188874Y520941D03*
D19*
X188874Y531559D03*
D23*
X188595Y521081D03*
D18*
X188595Y531419D03*
D86*
X188316Y520941D03*
D41*
X188316Y531419D03*
D17*
X188316Y538264D03*
D60*
X188036Y518427D03*
D43*
X188036Y531279D03*
D14*
X188036Y537985D03*
D22*
X187757Y502920D03*
X187757Y515214D03*
D53*
X187757Y518427D03*
D34*
X187757Y531139D03*
D15*
X187757Y537845D03*
D22*
X187477Y502920D03*
D53*
X187477Y518427D03*
D36*
X187477Y531000D03*
D15*
X187477Y537566D03*
D82*
X187198Y518287D03*
D37*
X187198Y530860D03*
D15*
X187198Y537286D03*
D22*
X186919Y502920D03*
X186919Y515493D03*
D68*
X186919Y518147D03*
D40*
X186919Y522618D03*
D37*
X186919Y530581D03*
D87*
X186919Y537147D03*
D59*
X186639Y522478D03*
D38*
X186639Y530441D03*
D15*
X186639Y537007D03*
D22*
X186360Y516052D03*
D16*
X186360Y522478D03*
D37*
X186360Y530301D03*
D13*
X186360Y536867D03*
D15*
X186080Y522478D03*
D37*
X186080Y530022D03*
D13*
X186080Y536588D03*
D22*
X185801Y501802D03*
X185801Y516331D03*
D63*
X185801Y522618D03*
D36*
X185801Y529603D03*
D13*
X185801Y536308D03*
D28*
X185522Y524993D03*
D20*
X185522Y536169D03*
D22*
X185242Y501523D03*
X185242Y516331D03*
D27*
X185242Y524993D03*
D20*
X185242Y535889D03*
D53*
X184963Y429298D03*
D22*
X184963Y430835D03*
D53*
X184963Y434607D03*
D22*
X184963Y436143D03*
X184963Y441452D03*
D68*
X184963Y442989D03*
D22*
X184963Y446761D03*
X184963Y449834D03*
X184963Y453746D03*
D55*
X184963Y455701D03*
D22*
X184963Y456819D03*
X184963Y459054D03*
X184963Y462966D03*
X184963Y464363D03*
X184963Y467995D03*
X184963Y469951D03*
X184963Y472186D03*
X184963Y474980D03*
X184963Y476377D03*
X184963Y480009D03*
D56*
X184963Y484619D03*
D22*
X184963Y485877D03*
D67*
X184963Y489928D03*
D82*
X184963Y490906D03*
D68*
X184963Y491884D03*
D22*
X184963Y516890D03*
D50*
X184963Y524853D03*
D63*
X184963Y535750D03*
D22*
X184683Y430835D03*
X184683Y440614D03*
X184683Y443408D03*
X184683Y446761D03*
X184683Y450393D03*
X184683Y453746D03*
X184683Y462966D03*
X184683Y464363D03*
X184683Y467995D03*
X184683Y469951D03*
X184683Y472465D03*
X184683Y474980D03*
X184683Y476656D03*
X184683Y480009D03*
X184683Y488950D03*
X184683Y492023D03*
X184683Y501244D03*
D25*
X184683Y524853D03*
D63*
X184683Y535470D03*
D22*
X184404Y430835D03*
X184404Y433070D03*
X184404Y440334D03*
X184404Y443687D03*
X184404Y446761D03*
X184404Y453746D03*
X184404Y459054D03*
X184404Y462966D03*
X184404Y464642D03*
X184404Y467716D03*
X184404Y469951D03*
X184404Y474980D03*
X184404Y476656D03*
X184404Y480009D03*
X184404Y486435D03*
X184404Y488671D03*
X184404Y492023D03*
X184404Y516331D03*
D24*
X184404Y524853D03*
D63*
X184404Y535191D03*
D22*
X184125Y430835D03*
X184125Y440334D03*
X184125Y446761D03*
X184125Y450672D03*
X184125Y453746D03*
X184125Y462966D03*
X184125Y464642D03*
X184125Y467716D03*
X184125Y469951D03*
X184125Y472745D03*
X184125Y474980D03*
X184125Y479730D03*
X184125Y486435D03*
X184125Y488391D03*
X184125Y492023D03*
X184125Y516890D03*
D24*
X184125Y524853D03*
D63*
X184125Y535191D03*
D22*
X183845Y430835D03*
X183845Y432511D03*
X183845Y444246D03*
X183845Y446761D03*
X183845Y450952D03*
X183845Y453746D03*
X183845Y459054D03*
X183845Y462966D03*
X183845Y464922D03*
X183845Y467436D03*
X183845Y469951D03*
X183845Y473024D03*
X183845Y474980D03*
X183845Y476936D03*
X183845Y479730D03*
X183845Y486435D03*
X183845Y516331D03*
X183845Y517169D03*
D86*
X183845Y523735D03*
D63*
X183845Y534911D03*
D22*
X183566Y430835D03*
X183566Y439776D03*
X183566Y446761D03*
X183566Y451231D03*
X183566Y453746D03*
X183566Y459054D03*
X183566Y462966D03*
X183566Y465760D03*
D68*
X183566Y466458D03*
D22*
X183566Y469951D03*
X183566Y473304D03*
X183566Y474980D03*
X183566Y476936D03*
X183566Y478053D03*
X183566Y478892D03*
X183566Y486435D03*
X183566Y492023D03*
X183566Y515493D03*
X183566Y516052D03*
X183566Y517728D03*
D63*
X183566Y523735D03*
D21*
X183566Y534772D03*
D22*
X183286Y439776D03*
X183286Y444525D03*
X183286Y446761D03*
X183286Y451510D03*
X183286Y453746D03*
X183286Y459054D03*
X183286Y462966D03*
X183286Y465201D03*
X183286Y469951D03*
X183286Y473583D03*
X183286Y474980D03*
X183286Y486435D03*
X183286Y492023D03*
X183286Y506832D03*
D20*
X183286Y523596D03*
D66*
X183286Y534492D03*
D22*
X183007Y428879D03*
X183007Y429997D03*
X183007Y439776D03*
X183007Y446761D03*
X183007Y449834D03*
X183007Y451510D03*
X183007Y453746D03*
X183007Y455143D03*
X183007Y459054D03*
X183007Y462966D03*
X183007Y465201D03*
X183007Y467157D03*
X183007Y473862D03*
X183007Y477215D03*
X183007Y479450D03*
X183007Y481965D03*
X183007Y484480D03*
X183007Y492023D03*
X183007Y515493D03*
X183007Y518008D03*
D15*
X183007Y523596D03*
D86*
X183007Y534353D03*
D22*
X182728Y432511D03*
X182728Y436143D03*
X182728Y439776D03*
X182728Y444525D03*
X182728Y446761D03*
X182728Y449834D03*
D67*
X182728Y451930D03*
D22*
X182728Y453746D03*
X182728Y459054D03*
X182728Y460731D03*
X182728Y462966D03*
X182728Y467157D03*
X182728Y469951D03*
X182728Y477495D03*
X182728Y479171D03*
D67*
X182728Y480987D03*
D22*
X182728Y488112D03*
X182728Y492023D03*
X182728Y505993D03*
D15*
X182728Y523596D03*
D63*
X182728Y534353D03*
D22*
X182448Y439776D03*
X182448Y444246D03*
X182448Y452069D03*
X182448Y453746D03*
X182448Y459054D03*
X182448Y460451D03*
X182448Y461289D03*
X182448Y462966D03*
X182448Y466877D03*
X182448Y469951D03*
X182448Y474980D03*
X182448Y492023D03*
X182448Y499847D03*
X182448Y518287D03*
D16*
X182448Y523596D03*
D20*
X182448Y534213D03*
D22*
X182169Y430835D03*
X182169Y432511D03*
D68*
X182169Y439915D03*
D22*
X182169Y444246D03*
X182169Y446761D03*
X182169Y452349D03*
X182169Y453746D03*
X182169Y459054D03*
X182169Y460172D03*
X182169Y461569D03*
X182169Y462966D03*
X182169Y465480D03*
X182169Y466877D03*
X182169Y472745D03*
X182169Y474980D03*
X182169Y477774D03*
X182169Y480568D03*
X182169Y486435D03*
X182169Y492023D03*
X182169Y505435D03*
D16*
X182169Y523596D03*
D20*
X182169Y534213D03*
D22*
X181889Y430835D03*
D67*
X181889Y432651D03*
D22*
X181889Y440055D03*
D68*
X181889Y444106D03*
D22*
X181889Y446761D03*
X181889Y449834D03*
X181889Y452628D03*
X181889Y453746D03*
X181889Y457098D03*
X181889Y460172D03*
X181889Y462966D03*
X181889Y465760D03*
X181889Y466598D03*
X181889Y469951D03*
X181889Y472745D03*
X181889Y474980D03*
X181889Y478892D03*
X181889Y486435D03*
X181889Y499567D03*
X181889Y505714D03*
D19*
X181889Y523735D03*
D13*
X181889Y534073D03*
D22*
X181610Y430835D03*
D68*
X181610Y432930D03*
D22*
X181610Y440334D03*
D67*
X181610Y443827D03*
D22*
X181610Y449834D03*
X181610Y452907D03*
X181610Y457098D03*
X181610Y459892D03*
X181610Y462128D03*
X181610Y462966D03*
X181610Y465760D03*
X181610Y469951D03*
X181610Y472745D03*
X181610Y474980D03*
X181610Y480568D03*
X181610Y486435D03*
X181610Y492023D03*
X181610Y504876D03*
X181610Y505435D03*
X181610Y518846D03*
D19*
X181610Y523735D03*
D13*
X181610Y534073D03*
D22*
X181331Y430835D03*
X181331Y433070D03*
X181331Y453746D03*
X181331Y462407D03*
X181331Y472745D03*
X181331Y474980D03*
X181331Y478612D03*
X181331Y480568D03*
X181331Y486435D03*
X181331Y488671D03*
X181331Y492023D03*
X181331Y504596D03*
D19*
X181331Y524015D03*
D15*
X181331Y533933D03*
D22*
X181051Y430835D03*
D67*
X181051Y433489D03*
D22*
X181051Y436143D03*
X181051Y440893D03*
X181051Y443408D03*
X181051Y449834D03*
X181051Y453746D03*
X181051Y459334D03*
X181051Y462407D03*
D67*
X181051Y473164D03*
D22*
X181051Y474980D03*
X181051Y480847D03*
X181051Y489229D03*
D18*
X181051Y524154D03*
D15*
X181051Y533654D03*
D56*
X180772Y429298D03*
D22*
X180772Y430276D03*
D56*
X180772Y434607D03*
D22*
X180772Y441452D03*
X180772Y442290D03*
X180772Y442849D03*
D67*
X180772Y445224D03*
D49*
X180772Y447180D03*
D22*
X180772Y449834D03*
X180772Y453746D03*
X180772Y455143D03*
X180772Y455701D03*
D56*
X180772Y456679D03*
D22*
X180772Y459054D03*
D67*
X180772Y462826D03*
D22*
X180772Y466319D03*
D62*
X180772Y469392D03*
D82*
X180772Y471348D03*
D67*
X180772Y474002D03*
D22*
X180772Y474980D03*
X180772Y478333D03*
D67*
X180772Y481546D03*
X180772Y482664D03*
D22*
X180772Y484480D03*
D67*
X180772Y485178D03*
D22*
X180772Y486435D03*
D82*
X180772Y490626D03*
D18*
X180772Y524154D03*
D15*
X180772Y533654D03*
D22*
X180492Y499008D03*
X180492Y503758D03*
X180492Y519125D03*
D18*
X180492Y524434D03*
D15*
X180492Y533375D03*
D22*
X180213Y504038D03*
D16*
X180213Y524713D03*
D13*
X180213Y533235D03*
D22*
X179934Y504038D03*
X179934Y519405D03*
D14*
X179934Y525132D03*
D20*
X179934Y532816D03*
D22*
X179654Y503758D03*
X179654Y519963D03*
D12*
X179654Y529184D03*
D22*
X179375Y498450D03*
D12*
X179375Y529184D03*
D22*
X179095Y503758D03*
X179095Y508508D03*
D35*
X179095Y529184D03*
D22*
X178816Y507111D03*
X178816Y509067D03*
X178816Y512978D03*
X178816Y514934D03*
D35*
X178816Y529184D03*
D22*
X178537Y497611D03*
X178537Y506832D03*
X178537Y509346D03*
D28*
X178537Y529184D03*
D22*
X177978Y497332D03*
X177978Y506552D03*
X177978Y509626D03*
X177978Y512420D03*
X177978Y515493D03*
X177978Y521081D03*
X177698Y512420D03*
X177140Y512420D03*
X177140Y521081D03*
X176860Y520522D03*
X176581Y512699D03*
X176301Y497891D03*
X176301Y503758D03*
X176301Y509067D03*
X176301Y512978D03*
X176022Y503758D03*
X176022Y514655D03*
X175184Y498729D03*
X175184Y504038D03*
D67*
X174904Y503898D03*
D22*
X174904Y507949D03*
D68*
X174904Y519544D03*
D22*
X174625Y504038D03*
X174346Y499288D03*
X174066Y499288D03*
X174066Y504596D03*
X174066Y507949D03*
X173787Y502920D03*
X173787Y507949D03*
X173787Y519125D03*
X173507Y502641D03*
X173507Y507949D03*
D67*
X173507Y518706D03*
D22*
X173228Y499567D03*
X173228Y505435D03*
X173228Y507949D03*
X172949Y507949D03*
X172669Y499847D03*
X172669Y507949D03*
X172669Y518287D03*
X172390Y500405D03*
X172390Y507949D03*
X172110Y505435D03*
X172110Y507949D03*
X172110Y514655D03*
X171831Y502641D03*
X171831Y505435D03*
X171552Y517728D03*
X171272Y500964D03*
X171272Y504876D03*
X171272Y515772D03*
X170993Y501244D03*
X170993Y517169D03*
X170434Y517169D03*
X169596Y507949D03*
X169316Y501802D03*
D67*
X169037Y502222D03*
D22*
X168758Y516052D03*
X168199Y515493D03*
X167919Y502920D03*
X167919Y515493D03*
X167640Y502920D03*
X167361Y503479D03*
X167361Y515214D03*
D16*
X183286Y510184D03*
D40*
X167361Y512559D03*
D55*
X183007Y456260D03*
D40*
X167361Y506412D03*
D88*
X174206Y514934D03*
D40*
X187757Y505854D03*
D89*
X182728Y457098D03*
D40*
X188036Y505574D03*
D66*
X187757Y511302D03*
D90*
X183566Y482803D03*
D88*
X170015Y507949D03*
D89*
X184125Y457098D03*
D40*
X188036Y510883D03*
D55*
X183007Y429997D03*
D22*
X167361Y509346D03*
X183007Y429158D03*
X184963Y430276D03*
X181331Y466598D03*
D91*
X174485Y507949D03*
D82*
X184963Y442290D03*
D68*
X181331Y443827D03*
D22*
X181889Y436143D03*
X183007Y485318D03*
X178816Y520522D03*
X181331Y446761D03*
X182448Y430835D03*
X181331Y457098D03*
X183007Y485597D03*
X171552Y503479D03*
X181331Y482524D03*
X174625Y498729D03*
X176860Y502920D03*
D68*
X178257Y503618D03*
D22*
X180772Y429997D03*
X181889Y482524D03*
X177419Y497611D03*
X180772Y430835D03*
X175743Y507390D03*
X183845Y500964D03*
X183286Y514934D03*
X183566Y513258D03*
X175743Y498170D03*
X172669Y502641D03*
X186639Y502361D03*
X170434Y501523D03*
X183286Y514375D03*
X181331Y482803D03*
D67*
X177140Y506412D03*
D22*
X180772Y430555D03*
X171831Y500126D03*
X175743Y519684D03*
X175463Y508229D03*
X181610Y477774D03*
X176581Y506832D03*
X171831Y500685D03*
X183286Y500405D03*
X184404Y436143D03*
X181610Y436143D03*
X183845Y436143D03*
X183845Y440055D03*
X180772Y485877D03*
D68*
X183566Y488251D03*
D22*
X181051Y478053D03*
X183286Y506552D03*
X182448Y517728D03*
X181889Y482803D03*
X182728Y473024D03*
X181051Y457098D03*
X182169Y488391D03*
X171272Y503479D03*
X183007Y486435D03*
X182448Y518287D03*
D67*
X171272Y504177D03*
D22*
X183007Y429717D03*
D56*
X180772Y491604D03*
D22*
X177140Y509626D03*
D91*
X177279Y520522D03*
D22*
X169875Y517169D03*
D67*
X181051Y504177D03*
D92*
X183007Y430835D03*
D82*
X169875Y501802D03*
D67*
X180772Y435724D03*
D22*
X183845Y449834D03*
X184404Y449834D03*
D82*
X168478Y502641D03*
D22*
X181051Y518846D03*
X183007Y474980D03*
X184963Y486435D03*
X182728Y473583D03*
X177978Y512699D03*
X177419Y512699D03*
X177419Y521360D03*
X177140Y520802D03*
X176860Y512978D03*
X180772Y474421D03*
X176581Y513258D03*
X169596Y516331D03*
X184963Y485318D03*
D68*
X175184Y519824D03*
D22*
X175743Y520802D03*
X174346Y504596D03*
X174066Y502920D03*
X174066Y519405D03*
X173787Y502641D03*
D67*
X173787Y518985D03*
D22*
X168478Y507949D03*
X173507Y505435D03*
X168199Y502641D03*
X172949Y518566D03*
X168758Y502082D03*
X172390Y505435D03*
X172390Y514934D03*
X172110Y502641D03*
X172110Y505435D03*
X171831Y518008D03*
X171552Y500964D03*
X171552Y504876D03*
X171552Y516052D03*
X171272Y501244D03*
X171272Y517449D03*
X170713Y517449D03*
X169596Y501802D03*
D67*
X169316Y502221D03*
D22*
X169037Y516331D03*
X168478Y515772D03*
X168199Y502920D03*
X168199Y515772D03*
X167919Y502920D03*
X167640Y503479D03*
X167640Y515493D03*
D93*
X78740Y22860D02*
X78742Y23002D01*
X78748Y23145D01*
X78758Y23287D01*
X78772Y23429D01*
X78790Y23570D01*
X78812Y23711D01*
X78838Y23851D01*
X78867Y23990D01*
X78901Y24129D01*
X78939Y24266D01*
X78980Y24403D01*
X79025Y24538D01*
X79074Y24672D01*
X79127Y24804D01*
X79183Y24935D01*
X79243Y25064D01*
X79307Y25192D01*
X79374Y25317D01*
X79445Y25441D01*
X79519Y25563D01*
X79596Y25682D01*
X79677Y25800D01*
X79761Y25915D01*
X79848Y26027D01*
X79939Y26137D01*
X80032Y26245D01*
X80129Y26350D01*
X80228Y26452D01*
X80330Y26551D01*
X80435Y26648D01*
X80543Y26741D01*
X80653Y26832D01*
X80765Y26919D01*
X80880Y27003D01*
X80998Y27084D01*
X81117Y27161D01*
X81239Y27235D01*
X81363Y27306D01*
X81488Y27373D01*
X81616Y27437D01*
X81745Y27497D01*
X81876Y27553D01*
X82008Y27606D01*
X82142Y27655D01*
X82277Y27700D01*
X82414Y27741D01*
X82551Y27779D01*
X82690Y27813D01*
X82829Y27842D01*
X82969Y27868D01*
X83110Y27890D01*
X83251Y27908D01*
X83393Y27922D01*
X83535Y27932D01*
X83678Y27938D01*
X83820Y27940D01*
X83962Y27938D01*
X84105Y27932D01*
X84247Y27922D01*
X84389Y27908D01*
X84530Y27890D01*
X84671Y27868D01*
X84811Y27842D01*
X84950Y27813D01*
X85089Y27779D01*
X85226Y27741D01*
X85363Y27700D01*
X85498Y27655D01*
X85632Y27606D01*
X85764Y27553D01*
X85895Y27497D01*
X86024Y27437D01*
X86152Y27373D01*
X86277Y27306D01*
X86401Y27235D01*
X86523Y27161D01*
X86642Y27084D01*
X86760Y27003D01*
X86875Y26919D01*
X86987Y26832D01*
X87097Y26741D01*
X87205Y26648D01*
X87310Y26551D01*
X87412Y26452D01*
X87511Y26350D01*
X87608Y26245D01*
X87701Y26137D01*
X87792Y26027D01*
X87879Y25915D01*
X87963Y25800D01*
X88044Y25682D01*
X88121Y25563D01*
X88195Y25441D01*
X88266Y25317D01*
X88333Y25192D01*
X88397Y25064D01*
X88457Y24935D01*
X88513Y24804D01*
X88566Y24672D01*
X88615Y24538D01*
X88660Y24403D01*
X88701Y24266D01*
X88739Y24129D01*
X88773Y23990D01*
X88802Y23851D01*
X88828Y23711D01*
X88850Y23570D01*
X88868Y23429D01*
X88882Y23287D01*
X88892Y23145D01*
X88898Y23002D01*
X88900Y22860D01*
X88898Y22718D01*
X88892Y22575D01*
X88882Y22433D01*
X88868Y22291D01*
X88850Y22150D01*
X88828Y22009D01*
X88802Y21869D01*
X88773Y21730D01*
X88739Y21591D01*
X88701Y21454D01*
X88660Y21317D01*
X88615Y21182D01*
X88566Y21048D01*
X88513Y20916D01*
X88457Y20785D01*
X88397Y20656D01*
X88333Y20528D01*
X88266Y20403D01*
X88195Y20279D01*
X88121Y20157D01*
X88044Y20038D01*
X87963Y19920D01*
X87879Y19805D01*
X87792Y19693D01*
X87701Y19583D01*
X87608Y19475D01*
X87511Y19370D01*
X87412Y19268D01*
X87310Y19169D01*
X87205Y19072D01*
X87097Y18979D01*
X86987Y18888D01*
X86875Y18801D01*
X86760Y18717D01*
X86642Y18636D01*
X86523Y18559D01*
X86401Y18485D01*
X86277Y18414D01*
X86152Y18347D01*
X86024Y18283D01*
X85895Y18223D01*
X85764Y18167D01*
X85632Y18114D01*
X85498Y18065D01*
X85363Y18020D01*
X85226Y17979D01*
X85089Y17941D01*
X84950Y17907D01*
X84811Y17878D01*
X84671Y17852D01*
X84530Y17830D01*
X84389Y17812D01*
X84247Y17798D01*
X84105Y17788D01*
X83962Y17782D01*
X83820Y17780D01*
X83678Y17782D01*
X83535Y17788D01*
X83393Y17798D01*
X83251Y17812D01*
X83110Y17830D01*
X82969Y17852D01*
X82829Y17878D01*
X82690Y17907D01*
X82551Y17941D01*
X82414Y17979D01*
X82277Y18020D01*
X82142Y18065D01*
X82008Y18114D01*
X81876Y18167D01*
X81745Y18223D01*
X81616Y18283D01*
X81488Y18347D01*
X81363Y18414D01*
X81239Y18485D01*
X81117Y18559D01*
X80998Y18636D01*
X80880Y18717D01*
X80765Y18801D01*
X80653Y18888D01*
X80543Y18979D01*
X80435Y19072D01*
X80330Y19169D01*
X80228Y19268D01*
X80129Y19370D01*
X80032Y19475D01*
X79939Y19583D01*
X79848Y19693D01*
X79761Y19805D01*
X79677Y19920D01*
X79596Y20038D01*
X79519Y20157D01*
X79445Y20279D01*
X79374Y20403D01*
X79307Y20528D01*
X79243Y20656D01*
X79183Y20785D01*
X79127Y20916D01*
X79074Y21048D01*
X79025Y21182D01*
X78980Y21317D01*
X78939Y21454D01*
X78901Y21591D01*
X78867Y21730D01*
X78838Y21869D01*
X78812Y22009D01*
X78790Y22150D01*
X78772Y22291D01*
X78758Y22433D01*
X78748Y22575D01*
X78742Y22718D01*
X78740Y22860D01*
M02*
