G04 EAGLE Gerber RS-274X export*
G75*
%MOMM*%
%FSLAX34Y34*%
%LPD*%
%INSoldermask Bottom*%
%IPPOS*%
%AMOC8*
5,1,8,0,0,1.08239X$1,22.5*%
G01*
%ADD10R,0.000494X0.000497*%
%ADD11R,0.000497X0.000497*%
%ADD12R,0.000994X0.000494*%
%ADD13R,0.000494X0.000494*%
%ADD14R,0.022819X0.000497*%
%ADD15R,0.000994X0.000497*%
%ADD16R,0.000500X0.000494*%
%ADD17R,0.000500X0.000497*%
%ADD18R,0.001491X0.000497*%
%ADD19R,0.000991X0.000497*%
%ADD20R,0.000497X0.000494*%
%ADD21R,0.002978X0.000497*%
%ADD22R,0.000991X0.000494*%
%ADD23R,0.001488X0.000494*%
%ADD24R,0.004463X0.000494*%
%ADD25R,0.004466X0.000497*%
%ADD26R,0.001488X0.000497*%
%ADD27R,0.002481X0.000497*%
%ADD28R,0.003966X0.000497*%
%ADD29R,0.009922X0.000497*%
%ADD30R,0.002478X0.000497*%
%ADD31R,0.001984X0.000494*%
%ADD32R,0.001491X0.000494*%
%ADD33R,0.001484X0.000497*%
%ADD34R,0.001984X0.000497*%
%ADD35R,0.006450X0.000497*%
%ADD36R,0.004463X0.000497*%
%ADD37R,0.003475X0.000497*%
%ADD38R,0.003972X0.000494*%
%ADD39R,0.001484X0.000494*%
%ADD40R,0.003472X0.000494*%
%ADD41R,0.002975X0.000497*%
%ADD42R,0.002975X0.000494*%
%ADD43R,0.006947X0.000497*%
%ADD44R,0.006447X0.000497*%
%ADD45R,0.017856X0.000494*%
%ADD46R,0.002481X0.000494*%
%ADD47R,0.005456X0.000494*%
%ADD48R,0.019841X0.000497*%
%ADD49R,0.005459X0.000497*%
%ADD50R,0.002972X0.000497*%
%ADD51R,0.007444X0.000494*%
%ADD52R,0.006947X0.000494*%
%ADD53R,0.005953X0.000494*%
%ADD54R,0.001981X0.000494*%
%ADD55R,0.003475X0.000494*%
%ADD56R,0.001981X0.000497*%
%ADD57R,0.008434X0.000497*%
%ADD58R,0.009425X0.000497*%
%ADD59R,0.009428X0.000497*%
%ADD60R,0.013891X0.000497*%
%ADD61R,0.005453X0.000497*%
%ADD62R,0.016372X0.000497*%
%ADD63R,0.005456X0.000497*%
%ADD64R,0.005950X0.000497*%
%ADD65R,0.001988X0.000497*%
%ADD66R,0.004959X0.000497*%
%ADD67R,0.002978X0.000494*%
%ADD68R,0.003966X0.000494*%
%ADD69R,0.015378X0.000494*%
%ADD70R,0.003472X0.000497*%
%ADD71R,0.003972X0.000497*%
%ADD72R,0.001988X0.000494*%
%ADD73R,0.012403X0.000497*%
%ADD74R,0.022322X0.000497*%
%ADD75R,0.011906X0.000497*%
%ADD76R,0.007441X0.000497*%
%ADD77P,1.759533X8X112.500000*%
%ADD78C,1.625600*%
%ADD79P,1.429621X8X292.500000*%
%ADD80C,2.601600*%
%ADD81C,1.101600*%


D10*
X476Y10D03*
D11*
X511Y10D03*
X729Y10D03*
X486Y15D03*
X511Y15D03*
D10*
X714Y15D03*
D12*
X533Y20D03*
D13*
X714Y20D03*
D12*
X742Y20D03*
D14*
X618Y25D03*
D10*
X501Y30D03*
X739Y30D03*
X501Y35D03*
D15*
X747Y35D03*
D16*
X496Y40D03*
X744Y40D03*
D17*
X496Y45D03*
D10*
X749Y45D03*
D11*
X471Y50D03*
D10*
X491Y50D03*
D11*
X754Y50D03*
D13*
X491Y55D03*
D12*
X757Y55D03*
D11*
X486Y60D03*
D18*
X615Y60D03*
D11*
X759Y60D03*
D17*
X779Y60D03*
D11*
X481Y64D03*
D10*
X605Y64D03*
D15*
X628Y64D03*
D10*
X774Y64D03*
D19*
X479Y69D03*
D15*
X598Y69D03*
D11*
X640Y69D03*
D10*
X764Y69D03*
X774Y69D03*
D13*
X476Y74D03*
X590Y74D03*
D20*
X640Y74D03*
X769Y74D03*
D16*
X779Y74D03*
D19*
X469Y79D03*
D10*
X590Y79D03*
D15*
X613Y79D03*
D11*
X645Y79D03*
D19*
X469Y84D03*
D17*
X610Y84D03*
D10*
X774Y84D03*
D15*
X449Y89D03*
D10*
X466Y89D03*
D15*
X613Y89D03*
D17*
X630Y89D03*
D11*
X645Y89D03*
D15*
X776Y89D03*
D13*
X466Y94D03*
D12*
X613Y94D03*
D20*
X645Y94D03*
D16*
X779Y94D03*
D10*
X437Y99D03*
X590Y99D03*
D15*
X613Y99D03*
D11*
X645Y99D03*
D10*
X784Y99D03*
X437Y104D03*
D17*
X461Y104D03*
D10*
X590Y104D03*
X615Y104D03*
D17*
X630Y104D03*
D11*
X645Y104D03*
D10*
X784Y104D03*
X456Y109D03*
D11*
X595Y109D03*
X645Y109D03*
D20*
X446Y114D03*
X600Y114D03*
D12*
X642Y114D03*
D20*
X789Y114D03*
D11*
X451Y119D03*
D21*
X618Y119D03*
D19*
X647Y119D03*
D11*
X451Y124D03*
D15*
X796Y124D03*
D11*
X407Y129D03*
D10*
X437Y129D03*
D11*
X446Y129D03*
D15*
X657Y129D03*
D11*
X828Y129D03*
D20*
X441Y134D03*
D22*
X667Y134D03*
D11*
X441Y139D03*
X665Y139D03*
X814Y139D03*
D19*
X672Y144D03*
D11*
X809Y144D03*
X432Y149D03*
X675Y149D03*
D10*
X685Y149D03*
D19*
X806Y149D03*
D23*
X427Y154D03*
D20*
X680Y154D03*
D22*
X702Y154D03*
D24*
X734Y154D03*
D12*
X776Y154D03*
X796Y154D03*
D11*
X407Y159D03*
D19*
X424Y159D03*
X687Y159D03*
D11*
X699Y159D03*
D25*
X729Y159D03*
D18*
X784Y159D03*
D19*
X806Y159D03*
D10*
X422Y164D03*
D13*
X402Y169D03*
X422Y169D03*
D20*
X823Y169D03*
X843Y169D03*
D26*
X407Y174D03*
D11*
X823Y174D03*
X843Y174D03*
D27*
X407Y179D03*
D11*
X828Y179D03*
X412Y184D03*
D26*
X833Y184D03*
D12*
X409Y189D03*
D20*
X833Y189D03*
D11*
X407Y193D03*
D10*
X838Y193D03*
D19*
X851Y193D03*
D10*
X402Y198D03*
D19*
X652Y198D03*
D11*
X675Y198D03*
D28*
X732Y198D03*
D19*
X851Y198D03*
X399Y203D03*
D11*
X645Y203D03*
D29*
X707Y203D03*
D11*
X843Y203D03*
D16*
X134Y208D03*
X382Y208D03*
D20*
X397Y208D03*
D23*
X645Y208D03*
D20*
X759Y208D03*
D13*
X863Y208D03*
D15*
X384Y213D03*
D11*
X397Y213D03*
D26*
X640Y213D03*
X759Y213D03*
D11*
X848Y213D03*
D19*
X866Y213D03*
D10*
X367Y218D03*
D15*
X384Y218D03*
D11*
X397Y218D03*
D15*
X632Y218D03*
D10*
X764Y218D03*
D11*
X848Y218D03*
D19*
X866Y218D03*
D26*
X149Y223D03*
D30*
X184Y223D03*
D10*
X357Y223D03*
D17*
X382Y223D03*
D11*
X397Y223D03*
X506Y223D03*
D10*
X516Y223D03*
X635Y223D03*
D19*
X771Y223D03*
D11*
X848Y223D03*
D19*
X866Y223D03*
D20*
X149Y228D03*
D13*
X377Y228D03*
D31*
X499Y228D03*
D20*
X521Y228D03*
D32*
X625Y228D03*
D13*
X774Y228D03*
D20*
X848Y228D03*
D13*
X863Y228D03*
D11*
X124Y233D03*
X144Y233D03*
D19*
X489Y233D03*
X504Y233D03*
D15*
X528Y233D03*
D33*
X620Y233D03*
D18*
X784Y233D03*
D11*
X843Y233D03*
X124Y238D03*
D10*
X139Y238D03*
D11*
X392Y238D03*
X407Y238D03*
X481Y238D03*
D26*
X506Y238D03*
D17*
X531Y238D03*
D18*
X615Y238D03*
D19*
X786Y238D03*
D10*
X853Y238D03*
X139Y243D03*
D11*
X407Y243D03*
X481Y243D03*
X506Y243D03*
D19*
X518Y243D03*
D10*
X536Y243D03*
D26*
X610Y243D03*
X823Y243D03*
D19*
X851Y243D03*
D16*
X134Y248D03*
D12*
X394Y248D03*
D20*
X412Y248D03*
X481Y248D03*
D13*
X491Y248D03*
D20*
X541Y248D03*
D32*
X605Y248D03*
D20*
X828Y248D03*
X1577Y248D03*
D16*
X1602Y248D03*
D20*
X1692Y248D03*
X1915Y248D03*
D13*
X2024Y248D03*
X2327Y248D03*
D15*
X394Y253D03*
D11*
X412Y253D03*
D10*
X476Y253D03*
D19*
X504Y253D03*
D15*
X543Y253D03*
D34*
X573Y253D03*
D10*
X605Y253D03*
X1414Y253D03*
D19*
X1481Y253D03*
D11*
X1667Y253D03*
D10*
X1830Y253D03*
D11*
X2118Y253D03*
D10*
X129Y258D03*
D11*
X397Y258D03*
D10*
X476Y258D03*
D18*
X501Y258D03*
D35*
X570Y258D03*
D11*
X923Y258D03*
X1037Y258D03*
D10*
X1052Y258D03*
X1111Y258D03*
D15*
X1173Y258D03*
D10*
X1280Y258D03*
D36*
X1349Y258D03*
D15*
X1684Y258D03*
D17*
X1702Y258D03*
D37*
X1786Y258D03*
D19*
X1922Y258D03*
D11*
X2044Y258D03*
X2054Y258D03*
D10*
X2093Y258D03*
X2113Y258D03*
D25*
X2232Y258D03*
D11*
X2302Y258D03*
X2317Y258D03*
X2436Y258D03*
X124Y263D03*
D19*
X399Y263D03*
D10*
X422Y263D03*
D11*
X481Y263D03*
D26*
X531Y263D03*
D15*
X826Y263D03*
D11*
X1007Y263D03*
D10*
X1131Y263D03*
X1146Y263D03*
X1245Y263D03*
X1315Y263D03*
D11*
X1384Y263D03*
X1409Y263D03*
X1503Y263D03*
X1577Y263D03*
D10*
X1706Y263D03*
D11*
X1726Y263D03*
D10*
X1756Y263D03*
D11*
X1821Y263D03*
X1905Y263D03*
X1930Y263D03*
X2034Y263D03*
D10*
X2059Y263D03*
D11*
X2088Y263D03*
D10*
X2158Y263D03*
D15*
X2200Y263D03*
X2269Y263D03*
D10*
X2287Y263D03*
X2307Y263D03*
X2441Y263D03*
D20*
X124Y268D03*
D13*
X422Y268D03*
D20*
X481Y268D03*
D12*
X826Y268D03*
D13*
X1131Y268D03*
X1146Y268D03*
X1245Y268D03*
D20*
X1305Y268D03*
X1399Y268D03*
X1473Y268D03*
X1503Y268D03*
X1577Y268D03*
X1657Y268D03*
X1672Y268D03*
X1746Y268D03*
D13*
X1830Y268D03*
D20*
X1930Y268D03*
X2029Y268D03*
D13*
X2059Y268D03*
D20*
X2088Y268D03*
X2188Y268D03*
X2282Y268D03*
X2297Y268D03*
D13*
X2307Y268D03*
D20*
X2465Y268D03*
D10*
X119Y273D03*
D11*
X407Y273D03*
D10*
X516Y273D03*
X819Y273D03*
D11*
X1007Y273D03*
D10*
X1146Y273D03*
X1245Y273D03*
D11*
X1285Y273D03*
X1295Y273D03*
X1409Y273D03*
X1503Y273D03*
X1667Y273D03*
D17*
X1702Y273D03*
X1736Y273D03*
D11*
X1840Y273D03*
X1930Y273D03*
D10*
X2024Y273D03*
X2059Y273D03*
D11*
X2088Y273D03*
D10*
X2158Y273D03*
D11*
X2178Y273D03*
X2292Y273D03*
X2436Y273D03*
X412Y278D03*
D10*
X491Y278D03*
X526Y278D03*
X1146Y278D03*
X1245Y278D03*
D11*
X1290Y278D03*
X1409Y278D03*
X1503Y278D03*
D10*
X1697Y278D03*
X1731Y278D03*
X1845Y278D03*
D11*
X1930Y278D03*
D17*
X2019Y278D03*
D10*
X2059Y278D03*
D11*
X2088Y278D03*
D10*
X2173Y278D03*
D11*
X2292Y278D03*
X2312Y278D03*
X2460Y278D03*
D15*
X429Y283D03*
D17*
X496Y283D03*
D26*
X516Y283D03*
D15*
X677Y283D03*
D26*
X699Y283D03*
D11*
X814Y283D03*
X828Y283D03*
X1007Y283D03*
D10*
X1146Y283D03*
X1245Y283D03*
X1260Y283D03*
X1270Y283D03*
D11*
X1409Y283D03*
X1473Y283D03*
X1503Y283D03*
D10*
X1662Y283D03*
D11*
X1726Y283D03*
X1930Y283D03*
D10*
X2014Y283D03*
X2059Y283D03*
D11*
X2088Y283D03*
X2168Y283D03*
X2292Y283D03*
D10*
X2341Y283D03*
D11*
X2431Y283D03*
X2460Y283D03*
D13*
X109Y288D03*
D22*
X434Y288D03*
D12*
X811Y288D03*
D20*
X1057Y288D03*
D38*
X1089Y288D03*
D13*
X1146Y288D03*
X1280Y288D03*
D12*
X1327Y288D03*
X1372Y288D03*
D20*
X1409Y288D03*
X1473Y288D03*
X1503Y288D03*
X1721Y288D03*
D12*
X1768Y288D03*
D22*
X1808Y288D03*
D20*
X1930Y288D03*
X2088Y288D03*
X2163Y288D03*
D22*
X2210Y288D03*
D39*
X2257Y288D03*
D20*
X2317Y288D03*
D19*
X97Y293D03*
D10*
X109Y293D03*
D11*
X417Y293D03*
X427Y293D03*
X665Y293D03*
X809Y293D03*
X1057Y293D03*
D10*
X1146Y293D03*
D17*
X1275Y293D03*
D10*
X1315Y293D03*
D11*
X1329Y293D03*
X1389Y293D03*
X1409Y293D03*
X1473Y293D03*
X1503Y293D03*
X1652Y293D03*
X1687Y293D03*
X1716Y293D03*
D10*
X1756Y293D03*
D11*
X1930Y293D03*
D10*
X2059Y293D03*
D11*
X2088Y293D03*
D10*
X2158Y293D03*
D11*
X2198Y293D03*
D10*
X2272Y293D03*
D11*
X2292Y293D03*
X2302Y293D03*
D17*
X2346Y293D03*
D10*
X2456Y293D03*
D11*
X79Y298D03*
X104Y298D03*
X427Y298D03*
X441Y298D03*
D19*
X667Y298D03*
D10*
X804Y298D03*
D11*
X1057Y298D03*
D10*
X1146Y298D03*
X1260Y298D03*
X1270Y298D03*
D11*
X1339Y298D03*
X1399Y298D03*
X1409Y298D03*
X1473Y298D03*
X1503Y298D03*
X1692Y298D03*
D10*
X1711Y298D03*
X1865Y298D03*
D11*
X1930Y298D03*
D10*
X2059Y298D03*
D11*
X2088Y298D03*
X2143Y298D03*
D10*
X2193Y298D03*
D11*
X2282Y298D03*
X2292Y298D03*
X79Y303D03*
X104Y303D03*
D10*
X422Y303D03*
D11*
X660Y303D03*
D10*
X670Y303D03*
X804Y303D03*
D11*
X1057Y303D03*
D10*
X1146Y303D03*
X1260Y303D03*
D11*
X1310Y303D03*
X1404Y303D03*
X1473Y303D03*
X1503Y303D03*
X1682Y303D03*
X1835Y303D03*
X1870Y303D03*
X1930Y303D03*
X1999Y303D03*
X2088Y303D03*
X2153Y303D03*
X2198Y303D03*
X2282Y303D03*
X2322Y303D03*
D10*
X2351Y303D03*
D11*
X2451Y303D03*
D20*
X99Y308D03*
X432Y308D03*
X446Y308D03*
D31*
X578Y308D03*
D40*
X610Y308D03*
D13*
X635Y308D03*
D20*
X799Y308D03*
X1057Y308D03*
D13*
X1146Y308D03*
D22*
X1302Y308D03*
D20*
X1320Y308D03*
X1473Y308D03*
X1503Y308D03*
X1647Y308D03*
D13*
X1677Y308D03*
X1741Y308D03*
D12*
X1798Y308D03*
D20*
X1870Y308D03*
X1930Y308D03*
X1994Y308D03*
X2029Y308D03*
D13*
X2059Y308D03*
D20*
X2088Y308D03*
X2183Y308D03*
D13*
X2351Y308D03*
X2421Y308D03*
D19*
X231Y313D03*
D11*
X427Y313D03*
D21*
X573Y313D03*
D41*
X613Y313D03*
D15*
X657Y313D03*
X796Y313D03*
D11*
X1057Y313D03*
D10*
X1146Y313D03*
D11*
X1265Y313D03*
X1295Y313D03*
X1473Y313D03*
X1503Y313D03*
D10*
X1642Y313D03*
D17*
X1736Y313D03*
D11*
X1930Y313D03*
D10*
X1989Y313D03*
X2024Y313D03*
X2059Y313D03*
D11*
X2088Y313D03*
X2148Y313D03*
X2178Y313D03*
D10*
X2327Y313D03*
D11*
X2446Y313D03*
D10*
X94Y317D03*
X218Y317D03*
D11*
X233Y317D03*
X432Y317D03*
D15*
X563Y317D03*
D11*
X660Y317D03*
X1057Y317D03*
D10*
X1146Y317D03*
D11*
X1473Y317D03*
X1503Y317D03*
D17*
X1637Y317D03*
D11*
X1672Y317D03*
X1746Y317D03*
D10*
X1845Y317D03*
D11*
X1875Y317D03*
X1930Y317D03*
D10*
X2059Y317D03*
D11*
X2088Y317D03*
X2212Y317D03*
D42*
X241Y322D03*
D13*
X437Y322D03*
D22*
X454Y322D03*
D20*
X561Y322D03*
X789Y322D03*
X1057Y322D03*
D13*
X1146Y322D03*
X1260Y322D03*
D20*
X1290Y322D03*
X1473Y322D03*
X1503Y322D03*
D13*
X1632Y322D03*
D20*
X1667Y322D03*
D13*
X1677Y322D03*
D16*
X1702Y322D03*
D13*
X1731Y322D03*
X1845Y322D03*
D20*
X1875Y322D03*
X1930Y322D03*
D13*
X2059Y322D03*
D20*
X2088Y322D03*
X2183Y322D03*
X2331Y322D03*
D11*
X50Y327D03*
X89Y327D03*
D10*
X208Y327D03*
D15*
X236Y327D03*
D10*
X437Y327D03*
X556Y327D03*
D19*
X667Y327D03*
D11*
X690Y327D03*
D17*
X709Y327D03*
D11*
X789Y327D03*
X1057Y327D03*
D10*
X1146Y327D03*
X1245Y327D03*
X1260Y327D03*
D11*
X1295Y327D03*
X1473Y327D03*
X1503Y327D03*
D10*
X1627Y327D03*
X1662Y327D03*
D17*
X1702Y327D03*
X1736Y327D03*
D11*
X1930Y327D03*
D17*
X2019Y327D03*
D10*
X2059Y327D03*
D11*
X2088Y327D03*
X2143Y327D03*
D10*
X2173Y327D03*
X2441Y327D03*
D15*
X82Y332D03*
D19*
X206Y332D03*
D11*
X233Y332D03*
X258Y332D03*
D10*
X437Y332D03*
D17*
X461Y332D03*
D15*
X548Y332D03*
D10*
X670Y332D03*
X685Y332D03*
D15*
X707Y332D03*
D10*
X784Y332D03*
D43*
X970Y332D03*
D11*
X1057Y332D03*
D10*
X1146Y332D03*
D44*
X1205Y332D03*
D11*
X1473Y332D03*
X1503Y332D03*
X1657Y332D03*
X1672Y332D03*
X1930Y332D03*
D10*
X2059Y332D03*
D11*
X2088Y332D03*
X2143Y332D03*
D10*
X2327Y332D03*
D18*
X2376Y332D03*
D34*
X2398Y332D03*
D11*
X64Y337D03*
D15*
X82Y337D03*
D11*
X203Y337D03*
X258Y337D03*
D10*
X437Y337D03*
D15*
X464Y337D03*
D10*
X536Y337D03*
D11*
X546Y337D03*
D26*
X680Y337D03*
D15*
X697Y337D03*
D10*
X784Y337D03*
D11*
X1057Y337D03*
D10*
X1146Y337D03*
D17*
X1240Y337D03*
D11*
X1473Y337D03*
X1503Y337D03*
X1652Y337D03*
D10*
X1677Y337D03*
D17*
X1850Y337D03*
D11*
X1930Y337D03*
X1969Y337D03*
D10*
X2004Y337D03*
X2059Y337D03*
D11*
X2088Y337D03*
X2143Y337D03*
X2366Y337D03*
X2436Y337D03*
D20*
X79Y342D03*
D45*
X350Y342D03*
D46*
X471Y342D03*
D47*
X516Y342D03*
D16*
X779Y342D03*
D20*
X1057Y342D03*
D13*
X1146Y342D03*
D16*
X1240Y342D03*
D20*
X1473Y342D03*
X1503Y342D03*
X1657Y342D03*
D16*
X1850Y342D03*
D20*
X1930Y342D03*
X1964Y342D03*
X1999Y342D03*
D13*
X2059Y342D03*
D20*
X2088Y342D03*
X2143Y342D03*
X2336Y342D03*
D16*
X2381Y342D03*
D10*
X74Y347D03*
D48*
X360Y347D03*
D49*
X506Y347D03*
D11*
X1057Y347D03*
D10*
X1146Y347D03*
D17*
X1240Y347D03*
D11*
X1473Y347D03*
X1503Y347D03*
D17*
X1850Y347D03*
D11*
X1930Y347D03*
D10*
X1959Y347D03*
D11*
X1994Y347D03*
D10*
X2059Y347D03*
D11*
X2088Y347D03*
X2143Y347D03*
D10*
X2341Y347D03*
D11*
X2401Y347D03*
X2431Y347D03*
D19*
X42Y352D03*
D10*
X74Y352D03*
D11*
X203Y352D03*
X223Y352D03*
X258Y352D03*
D18*
X456Y352D03*
D10*
X774Y352D03*
D11*
X1057Y352D03*
D10*
X1146Y352D03*
D17*
X1240Y352D03*
D11*
X1473Y352D03*
X1503Y352D03*
X1667Y352D03*
D17*
X1850Y352D03*
D11*
X1930Y352D03*
D15*
X1952Y352D03*
D10*
X1989Y352D03*
X2059Y352D03*
D11*
X2088Y352D03*
X2143Y352D03*
X2371Y352D03*
X2436Y352D03*
D17*
X0Y357D03*
D10*
X40Y357D03*
D15*
X52Y357D03*
D11*
X69Y357D03*
D10*
X208Y357D03*
D11*
X233Y357D03*
D19*
X255Y357D03*
D15*
X459Y357D03*
D19*
X771Y357D03*
D11*
X789Y357D03*
D43*
X970Y357D03*
D11*
X1057Y357D03*
D10*
X1146Y357D03*
D44*
X1205Y357D03*
D10*
X1260Y357D03*
D11*
X1473Y357D03*
X1503Y357D03*
D50*
X1620Y357D03*
D11*
X1672Y357D03*
X1930Y357D03*
D10*
X1945Y357D03*
X2059Y357D03*
D11*
X2088Y357D03*
X2143Y357D03*
D17*
X2346Y357D03*
D11*
X2396Y357D03*
X2426Y357D03*
D12*
X2Y362D03*
D20*
X55Y362D03*
X69Y362D03*
D13*
X208Y362D03*
D16*
X461Y362D03*
D20*
X471Y362D03*
X769Y362D03*
X1057Y362D03*
D13*
X1146Y362D03*
X1260Y362D03*
D20*
X1290Y362D03*
X1473Y362D03*
X1503Y362D03*
D16*
X1702Y362D03*
D20*
X1930Y362D03*
D13*
X2059Y362D03*
D20*
X2088Y362D03*
X2143Y362D03*
D13*
X2173Y362D03*
D16*
X2346Y362D03*
D13*
X2376Y362D03*
D20*
X2396Y362D03*
D11*
X64Y367D03*
D15*
X216Y367D03*
D17*
X248Y367D03*
X461Y367D03*
D19*
X479Y367D03*
D10*
X764Y367D03*
D11*
X789Y367D03*
X1057Y367D03*
D10*
X1146Y367D03*
D11*
X1473Y367D03*
X1503Y367D03*
D17*
X1637Y367D03*
D10*
X1845Y367D03*
D11*
X1875Y367D03*
X1930Y367D03*
D10*
X2059Y367D03*
D11*
X2088Y367D03*
D10*
X2351Y367D03*
X2421Y367D03*
X60Y372D03*
D33*
X223Y372D03*
D19*
X241Y372D03*
D11*
X481Y372D03*
D10*
X764Y372D03*
D11*
X1057Y372D03*
D10*
X1146Y372D03*
D11*
X1295Y372D03*
X1473Y372D03*
X1503Y372D03*
X1647Y372D03*
D10*
X1741Y372D03*
D11*
X1875Y372D03*
X1930Y372D03*
X1974Y372D03*
D10*
X2059Y372D03*
D11*
X2088Y372D03*
X2148Y372D03*
X2178Y372D03*
X2297Y372D03*
D10*
X2351Y372D03*
D17*
X2381Y372D03*
D11*
X2391Y372D03*
D10*
X2421Y372D03*
X60Y377D03*
D19*
X469Y377D03*
D11*
X486Y377D03*
X759Y377D03*
X1057Y377D03*
D10*
X1146Y377D03*
D11*
X1265Y377D03*
X1473Y377D03*
X1503Y377D03*
D17*
X1637Y377D03*
D10*
X1677Y377D03*
X1706Y377D03*
D17*
X1771Y377D03*
D11*
X1840Y377D03*
D15*
X1932Y377D03*
D11*
X1969Y377D03*
D10*
X2059Y377D03*
D11*
X2088Y377D03*
X2183Y377D03*
D17*
X2381Y377D03*
D20*
X471Y382D03*
D13*
X491Y382D03*
D20*
X754Y382D03*
X1057Y382D03*
D13*
X1146Y382D03*
X1300Y382D03*
D20*
X1310Y382D03*
X1473Y382D03*
X1503Y382D03*
D13*
X1632Y382D03*
D20*
X1647Y382D03*
D13*
X1677Y382D03*
X1741Y382D03*
D20*
X1816Y382D03*
X1826Y382D03*
X1870Y382D03*
X1930Y382D03*
X1964Y382D03*
D13*
X2059Y382D03*
D20*
X2088Y382D03*
X2203Y382D03*
X2217Y382D03*
X2356Y382D03*
D13*
X2386Y382D03*
D20*
X2416Y382D03*
D17*
X35Y387D03*
D19*
X474Y387D03*
D11*
X754Y387D03*
X769Y387D03*
X1057Y387D03*
D10*
X1146Y387D03*
X1270Y387D03*
D11*
X1305Y387D03*
D18*
X1404Y387D03*
D11*
X1473Y387D03*
X1503Y387D03*
X1647Y387D03*
D10*
X1711Y387D03*
D11*
X1746Y387D03*
D10*
X1830Y387D03*
X1959Y387D03*
X2059Y387D03*
D11*
X2088Y387D03*
X2153Y387D03*
D10*
X2287Y387D03*
D19*
X479Y392D03*
D17*
X496Y392D03*
D10*
X749Y392D03*
D11*
X769Y392D03*
X1057Y392D03*
D10*
X1146Y392D03*
X1315Y392D03*
D11*
X1324Y392D03*
X1339Y392D03*
D10*
X1394Y392D03*
D11*
X1409Y392D03*
X1503Y392D03*
X1751Y392D03*
X1826Y392D03*
D10*
X1865Y392D03*
D11*
X1954Y392D03*
D10*
X2059Y392D03*
D11*
X2088Y392D03*
X2148Y392D03*
D10*
X2158Y392D03*
D11*
X2198Y392D03*
X2277Y392D03*
X2292Y392D03*
D10*
X2351Y392D03*
X2361Y392D03*
D11*
X2411Y392D03*
D17*
X496Y397D03*
D11*
X769Y397D03*
X1057Y397D03*
D10*
X1146Y397D03*
D11*
X1320Y397D03*
D19*
X1382Y397D03*
D11*
X1409Y397D03*
X1473Y397D03*
X1503Y397D03*
X1716Y397D03*
X1761Y397D03*
X1860Y397D03*
X1974Y397D03*
D10*
X2059Y397D03*
D11*
X2088Y397D03*
D17*
X2267Y397D03*
D11*
X2292Y397D03*
D10*
X2341Y397D03*
X2361Y397D03*
D20*
X10Y402D03*
X45Y402D03*
D12*
X484Y402D03*
D13*
X501Y402D03*
D51*
X972Y402D03*
D20*
X1057Y402D03*
D13*
X1146Y402D03*
D52*
X1208Y402D03*
D22*
X1337Y402D03*
D13*
X1349Y402D03*
D22*
X1362Y402D03*
D20*
X1409Y402D03*
D47*
X1449Y402D03*
D53*
X1530Y402D03*
D54*
X1625Y402D03*
D20*
X1672Y402D03*
X1721Y402D03*
D38*
X1788Y402D03*
D13*
X1855Y402D03*
X2059Y402D03*
D20*
X2088Y402D03*
D55*
X2232Y402D03*
D20*
X2292Y402D03*
D13*
X2406Y402D03*
D20*
X2431Y402D03*
D15*
X499Y407D03*
X742Y407D03*
D11*
X1007Y407D03*
X1057Y407D03*
D10*
X1146Y407D03*
D11*
X1409Y407D03*
X1419Y407D03*
X1577Y407D03*
X1667Y407D03*
X1726Y407D03*
D17*
X1850Y407D03*
D11*
X2088Y407D03*
X2292Y407D03*
X2366Y407D03*
D15*
X300Y412D03*
D19*
X489Y412D03*
D56*
X508Y412D03*
D34*
X682Y412D03*
D19*
X737Y412D03*
D11*
X1007Y412D03*
X1057Y412D03*
D10*
X1146Y412D03*
D15*
X1292Y412D03*
D11*
X1409Y412D03*
X1419Y412D03*
D10*
X1731Y412D03*
X1845Y412D03*
D11*
X1940Y412D03*
X2088Y412D03*
X2178Y412D03*
X2292Y412D03*
X2401Y412D03*
D26*
X60Y417D03*
D57*
X119Y417D03*
D19*
X290Y417D03*
D15*
X315Y417D03*
D10*
X491Y417D03*
D56*
X518Y417D03*
D11*
X719Y417D03*
D15*
X732Y417D03*
D11*
X1007Y417D03*
X1057Y417D03*
D10*
X1146Y417D03*
X1280Y417D03*
X1300Y417D03*
D11*
X1404Y417D03*
X1419Y417D03*
X1657Y417D03*
D10*
X1741Y417D03*
D11*
X1835Y417D03*
X1935Y417D03*
D10*
X2059Y417D03*
D11*
X2088Y417D03*
D10*
X2287Y417D03*
D11*
X2371Y417D03*
X2401Y417D03*
D31*
X52Y422D03*
D20*
X164Y422D03*
D23*
X283Y422D03*
D13*
X491Y422D03*
D54*
X518Y422D03*
D13*
X739Y422D03*
D20*
X1007Y422D03*
X1057Y422D03*
D13*
X1146Y422D03*
D20*
X1310Y422D03*
X1389Y422D03*
X1419Y422D03*
X1577Y422D03*
X1647Y422D03*
X1667Y422D03*
X1751Y422D03*
X1826Y422D03*
X1930Y422D03*
D13*
X2059Y422D03*
D20*
X2088Y422D03*
X2198Y422D03*
D13*
X2272Y422D03*
D19*
X42Y427D03*
D18*
X164Y427D03*
D11*
X313Y427D03*
X327Y427D03*
D56*
X508Y427D03*
D11*
X551Y427D03*
D15*
X747Y427D03*
D58*
X957Y427D03*
D30*
X1042Y427D03*
D59*
X1196Y427D03*
D15*
X1327Y427D03*
X1372Y427D03*
D60*
X1491Y427D03*
D61*
X1607Y427D03*
D10*
X1766Y427D03*
D19*
X1813Y427D03*
D30*
X1915Y427D03*
D27*
X2044Y427D03*
D41*
X2101Y427D03*
D11*
X2188Y427D03*
D19*
X2210Y427D03*
X2255Y427D03*
D10*
X2376Y427D03*
D11*
X2396Y427D03*
D10*
X40Y432D03*
X278Y432D03*
D11*
X327Y432D03*
D19*
X489Y432D03*
D10*
X501Y432D03*
D11*
X1577Y432D03*
X1652Y432D03*
X1860Y432D03*
X2282Y432D03*
D22*
X42Y437D03*
X176Y437D03*
D20*
X273Y437D03*
D12*
X335Y437D03*
D20*
X481Y437D03*
D16*
X496Y437D03*
D20*
X506Y437D03*
X729Y437D03*
D13*
X1300Y437D03*
D20*
X1344Y437D03*
D11*
X45Y441D03*
D26*
X179Y441D03*
D11*
X273Y441D03*
X313Y441D03*
D34*
X340Y441D03*
X379Y441D03*
D19*
X424Y441D03*
D11*
X481Y441D03*
X734Y441D03*
D10*
X40Y446D03*
D11*
X50Y446D03*
D15*
X181Y446D03*
D11*
X273Y446D03*
D17*
X283Y446D03*
D15*
X335Y446D03*
D10*
X422Y446D03*
D11*
X432Y446D03*
D10*
X501Y446D03*
D15*
X47Y451D03*
D19*
X186Y451D03*
D34*
X280Y451D03*
X305Y451D03*
D19*
X434Y451D03*
D17*
X496Y451D03*
D27*
X531Y451D03*
D62*
X630Y451D03*
D10*
X739Y451D03*
D20*
X45Y456D03*
D22*
X191Y456D03*
D12*
X280Y456D03*
D23*
X308Y456D03*
D20*
X327Y456D03*
D22*
X439Y456D03*
D20*
X471Y456D03*
D16*
X496Y456D03*
D20*
X541Y456D03*
D16*
X744Y456D03*
D11*
X198Y461D03*
D19*
X320Y461D03*
D15*
X444Y461D03*
D11*
X471Y461D03*
D10*
X491Y461D03*
D11*
X511Y461D03*
D19*
X538Y461D03*
D10*
X724Y461D03*
X749Y461D03*
X60Y466D03*
D15*
X201Y466D03*
D17*
X283Y466D03*
D11*
X317Y466D03*
D26*
X451Y466D03*
D10*
X466Y466D03*
X749Y466D03*
D11*
X50Y471D03*
X64Y471D03*
D26*
X203Y471D03*
X308Y471D03*
D11*
X486Y471D03*
X506Y471D03*
D10*
X516Y471D03*
D11*
X1265Y471D03*
X2009Y471D03*
D20*
X64Y476D03*
D32*
X208Y476D03*
D20*
X451Y476D03*
X481Y476D03*
X734Y476D03*
X754Y476D03*
X1071Y476D03*
X1265Y476D03*
D22*
X1962Y476D03*
D15*
X67Y481D03*
D10*
X208Y481D03*
D19*
X469Y481D03*
D10*
X501Y481D03*
D11*
X759Y481D03*
D63*
X943Y481D03*
D64*
X1039Y481D03*
D34*
X1084Y481D03*
D18*
X1131Y481D03*
X1200Y481D03*
D26*
X1225Y481D03*
D34*
X1277Y481D03*
X1312Y481D03*
D65*
X1347Y481D03*
D34*
X1416Y481D03*
D18*
X1439Y481D03*
D56*
X1511Y481D03*
D63*
X1558Y481D03*
D15*
X1605Y481D03*
D26*
X1672Y481D03*
D11*
X1692Y481D03*
D26*
X1726Y481D03*
D21*
X1808Y481D03*
D66*
X1927Y481D03*
X2026Y481D03*
D26*
X69Y486D03*
D15*
X216Y486D03*
D10*
X476Y486D03*
D17*
X496Y486D03*
D10*
X739Y486D03*
X918Y486D03*
X972Y486D03*
X1012Y486D03*
X1067Y486D03*
D11*
X1076Y486D03*
X1091Y486D03*
D10*
X1210Y486D03*
D11*
X1285Y486D03*
X1339Y486D03*
D17*
X1354Y486D03*
D11*
X1409Y486D03*
X1424Y486D03*
X1434Y486D03*
D10*
X1449Y486D03*
X1518Y486D03*
D11*
X1533Y486D03*
X1587Y486D03*
D10*
X1597Y486D03*
D11*
X1612Y486D03*
D10*
X1662Y486D03*
D11*
X1682Y486D03*
X1786Y486D03*
D19*
X1833Y486D03*
D11*
X1905Y486D03*
D19*
X1962Y486D03*
D11*
X1999Y486D03*
X2054Y486D03*
D19*
X72Y491D03*
D10*
X218Y491D03*
D19*
X454Y491D03*
D10*
X739Y491D03*
X764Y491D03*
X918Y491D03*
D11*
X982Y491D03*
D10*
X1012Y491D03*
X1067Y491D03*
D11*
X1076Y491D03*
X1091Y491D03*
D17*
X1126Y491D03*
D11*
X1141Y491D03*
X1191Y491D03*
X1265Y491D03*
X1285Y491D03*
X1305Y491D03*
X1329Y491D03*
X1339Y491D03*
X1424Y491D03*
D10*
X1449Y491D03*
X1518Y491D03*
D11*
X1533Y491D03*
X1587Y491D03*
D10*
X1597Y491D03*
D11*
X1612Y491D03*
D17*
X1622Y491D03*
D11*
X1657Y491D03*
X1682Y491D03*
X1716Y491D03*
D10*
X1766Y491D03*
X1776Y491D03*
D11*
X1840Y491D03*
X1905Y491D03*
X1969Y491D03*
D13*
X74Y496D03*
D12*
X449Y496D03*
D16*
X744Y496D03*
D13*
X918Y496D03*
D67*
X945Y496D03*
D13*
X987Y496D03*
X1012Y496D03*
D40*
X1047Y496D03*
D20*
X1076Y496D03*
X1091Y496D03*
D16*
X1126Y496D03*
X1205Y496D03*
D13*
X1260Y496D03*
X1280Y496D03*
D20*
X1290Y496D03*
X1305Y496D03*
X1344Y496D03*
D13*
X1359Y496D03*
D20*
X1404Y496D03*
X1419Y496D03*
D13*
X1449Y496D03*
X1518Y496D03*
D20*
X1533Y496D03*
D68*
X1565Y496D03*
D13*
X1597Y496D03*
D20*
X1612Y496D03*
X1682Y496D03*
X1716Y496D03*
D16*
X1771Y496D03*
D12*
X1803Y496D03*
X1818Y496D03*
D13*
X1845Y496D03*
D20*
X1905Y496D03*
D42*
X1937Y496D03*
D22*
X1977Y496D03*
D38*
X2036Y496D03*
D11*
X79Y501D03*
D19*
X231Y501D03*
D11*
X441Y501D03*
D17*
X496Y501D03*
D10*
X749Y501D03*
D11*
X769Y501D03*
D10*
X918Y501D03*
X933Y501D03*
X972Y501D03*
D17*
X992Y501D03*
D10*
X1012Y501D03*
D11*
X1076Y501D03*
X1091Y501D03*
D10*
X1131Y501D03*
X1146Y501D03*
D11*
X1186Y501D03*
X1255Y501D03*
D17*
X1275Y501D03*
D11*
X1305Y501D03*
X1344Y501D03*
X1404Y501D03*
X1419Y501D03*
X1434Y501D03*
D10*
X1449Y501D03*
X1518Y501D03*
D11*
X1533Y501D03*
D10*
X1548Y501D03*
X1597Y501D03*
D11*
X1612Y501D03*
X1652Y501D03*
X1682Y501D03*
D10*
X1791Y501D03*
D11*
X1826Y501D03*
D17*
X1850Y501D03*
D11*
X1905Y501D03*
X1920Y501D03*
D10*
X1959Y501D03*
X1979Y501D03*
D15*
X82Y506D03*
D11*
X238Y506D03*
X441Y506D03*
X451Y506D03*
D15*
X464Y506D03*
D10*
X501Y506D03*
X918Y506D03*
X933Y506D03*
D11*
X977Y506D03*
D10*
X1012Y506D03*
D11*
X1076Y506D03*
X1091Y506D03*
D10*
X1131Y506D03*
D11*
X1186Y506D03*
D10*
X1200Y506D03*
D11*
X1255Y506D03*
X1305Y506D03*
X1320Y506D03*
X1399Y506D03*
D10*
X1449Y506D03*
D11*
X1478Y506D03*
D10*
X1518Y506D03*
D11*
X1533Y506D03*
D10*
X1548Y506D03*
X1597Y506D03*
D11*
X1612Y506D03*
X1647Y506D03*
X1682Y506D03*
X1716Y506D03*
D10*
X1766Y506D03*
D11*
X1786Y506D03*
X1835Y506D03*
X1905Y506D03*
X1920Y506D03*
X1964Y506D03*
D17*
X1984Y506D03*
D11*
X238Y511D03*
D10*
X437Y511D03*
D17*
X461Y511D03*
D11*
X506Y511D03*
X754Y511D03*
D10*
X918Y511D03*
X933Y511D03*
D11*
X967Y511D03*
D10*
X997Y511D03*
X1012Y511D03*
D11*
X1076Y511D03*
X1091Y511D03*
D10*
X1200Y511D03*
D11*
X1250Y511D03*
D10*
X1270Y511D03*
D11*
X1305Y511D03*
X1320Y511D03*
D10*
X1349Y511D03*
X1414Y511D03*
X1449Y511D03*
X1518Y511D03*
D11*
X1533Y511D03*
D10*
X1548Y511D03*
X1597Y511D03*
D11*
X1612Y511D03*
D10*
X1642Y511D03*
X1662Y511D03*
D11*
X1682Y511D03*
X1716Y511D03*
X1781Y511D03*
X1826Y511D03*
D10*
X1855Y511D03*
D11*
X1905Y511D03*
X1954Y511D03*
X1969Y511D03*
X1994Y511D03*
X2029Y511D03*
D20*
X89Y516D03*
D16*
X248Y516D03*
D20*
X263Y516D03*
X273Y516D03*
D16*
X283Y516D03*
D13*
X437Y516D03*
D20*
X486Y516D03*
D69*
X590Y516D03*
D16*
X779Y516D03*
D13*
X918Y516D03*
X933Y516D03*
D20*
X982Y516D03*
D13*
X1012Y516D03*
D20*
X1076Y516D03*
X1091Y516D03*
X1136Y516D03*
X1196Y516D03*
D13*
X1210Y516D03*
X1245Y516D03*
D20*
X1265Y516D03*
X1305Y516D03*
X1320Y516D03*
D13*
X1349Y516D03*
X1449Y516D03*
D20*
X1473Y516D03*
D13*
X1518Y516D03*
D20*
X1533Y516D03*
D13*
X1548Y516D03*
X1597Y516D03*
D20*
X1612Y516D03*
D16*
X1637Y516D03*
D20*
X1657Y516D03*
X1667Y516D03*
X1682Y516D03*
X1716Y516D03*
X1840Y516D03*
D13*
X1855Y516D03*
D20*
X1905Y516D03*
X1969Y516D03*
D26*
X248Y521D03*
D19*
X290Y521D03*
D11*
X432Y521D03*
X441Y521D03*
D10*
X456Y521D03*
X476Y521D03*
X491Y521D03*
X670Y521D03*
D11*
X759Y521D03*
D10*
X918Y521D03*
X933Y521D03*
D11*
X982Y521D03*
X1002Y521D03*
D70*
X1047Y521D03*
D11*
X1076Y521D03*
D27*
X1106Y521D03*
X1166Y521D03*
D10*
X1235Y521D03*
X1260Y521D03*
D11*
X1305Y521D03*
D17*
X1354Y521D03*
D65*
X1382Y521D03*
D11*
X1409Y521D03*
X1434Y521D03*
D10*
X1449Y521D03*
D19*
X1466Y521D03*
D10*
X1518Y521D03*
D11*
X1533Y521D03*
D70*
X1568Y521D03*
D10*
X1597Y521D03*
D11*
X1612Y521D03*
X1652Y521D03*
X1667Y521D03*
X1682Y521D03*
X1716Y521D03*
X1761Y521D03*
D10*
X1776Y521D03*
D11*
X1816Y521D03*
X1840Y521D03*
X1905Y521D03*
D71*
X2036Y521D03*
D11*
X293Y526D03*
D10*
X437Y526D03*
D17*
X496Y526D03*
D11*
X675Y526D03*
D10*
X764Y526D03*
X784Y526D03*
X918Y526D03*
X933Y526D03*
D11*
X1002Y526D03*
D10*
X1012Y526D03*
D11*
X1076Y526D03*
D17*
X1126Y526D03*
D11*
X1141Y526D03*
X1156Y526D03*
X1176Y526D03*
X1215Y526D03*
D10*
X1260Y526D03*
D11*
X1305Y526D03*
X1409Y526D03*
X1434Y526D03*
D10*
X1449Y526D03*
X1483Y526D03*
X1518Y526D03*
D11*
X1533Y526D03*
D10*
X1582Y526D03*
X1597Y526D03*
D11*
X1612Y526D03*
X1667Y526D03*
X1761Y526D03*
D10*
X1776Y526D03*
D11*
X1840Y526D03*
X1905Y526D03*
X1920Y526D03*
X1974Y526D03*
D10*
X1989Y526D03*
D11*
X2054Y526D03*
D20*
X84Y531D03*
X99Y531D03*
D72*
X290Y531D03*
D20*
X427Y531D03*
X451Y531D03*
X471Y531D03*
D13*
X501Y531D03*
D20*
X680Y531D03*
X759Y531D03*
D13*
X918Y531D03*
X933Y531D03*
D20*
X1002Y531D03*
D13*
X1012Y531D03*
D20*
X1076Y531D03*
D13*
X1131Y531D03*
D20*
X1191Y531D03*
X1305Y531D03*
D13*
X1359Y531D03*
D16*
X1374Y531D03*
D20*
X1389Y531D03*
X1404Y531D03*
D13*
X1449Y531D03*
D16*
X1488Y531D03*
D13*
X1518Y531D03*
D20*
X1533Y531D03*
D13*
X1582Y531D03*
X1597Y531D03*
D20*
X1612Y531D03*
X1682Y531D03*
X1761Y531D03*
D13*
X1776Y531D03*
D20*
X1786Y531D03*
D13*
X1830Y531D03*
D20*
X1840Y531D03*
X1905Y531D03*
X1969Y531D03*
D13*
X1989Y531D03*
D20*
X2054Y531D03*
D11*
X89Y536D03*
D10*
X243Y536D03*
D11*
X263Y536D03*
D17*
X283Y536D03*
D11*
X303Y536D03*
D15*
X444Y536D03*
D73*
X570Y536D03*
D27*
X650Y536D03*
D11*
X769Y536D03*
X789Y536D03*
D10*
X918Y536D03*
X933Y536D03*
D11*
X982Y536D03*
D10*
X1012Y536D03*
D11*
X1062Y536D03*
X1076Y536D03*
X1091Y536D03*
D10*
X1111Y536D03*
X1131Y536D03*
X1146Y536D03*
D11*
X1161Y536D03*
X1171Y536D03*
X1250Y536D03*
D10*
X1270Y536D03*
D11*
X1290Y536D03*
X1305Y536D03*
D10*
X1359Y536D03*
D11*
X1384Y536D03*
X1404Y536D03*
X1434Y536D03*
D10*
X1449Y536D03*
X1458Y536D03*
X1493Y536D03*
X1518Y536D03*
D11*
X1533Y536D03*
D10*
X1548Y536D03*
D19*
X1565Y536D03*
D11*
X1577Y536D03*
D10*
X1597Y536D03*
D11*
X1612Y536D03*
D17*
X1622Y536D03*
D10*
X1642Y536D03*
D11*
X1682Y536D03*
X1716Y536D03*
X1761Y536D03*
X1821Y536D03*
X1840Y536D03*
X1905Y536D03*
X1920Y536D03*
D17*
X2019Y536D03*
D11*
X2034Y536D03*
X2049Y536D03*
D19*
X92Y541D03*
D11*
X104Y541D03*
D10*
X243Y541D03*
D11*
X303Y541D03*
D10*
X422Y541D03*
D11*
X446Y541D03*
X665Y541D03*
X694Y541D03*
X794Y541D03*
D10*
X918Y541D03*
X933Y541D03*
D11*
X982Y541D03*
D10*
X1012Y541D03*
D11*
X1076Y541D03*
X1091Y541D03*
X1116Y541D03*
X1136Y541D03*
D10*
X1146Y541D03*
D11*
X1186Y541D03*
X1255Y541D03*
D10*
X1270Y541D03*
D11*
X1305Y541D03*
X1320Y541D03*
X1384Y541D03*
D15*
X1451Y541D03*
X1476Y541D03*
D10*
X1518Y541D03*
D11*
X1533Y541D03*
D10*
X1548Y541D03*
X1597Y541D03*
D19*
X1615Y541D03*
D17*
X1637Y541D03*
D11*
X1647Y541D03*
X1682Y541D03*
D10*
X1706Y541D03*
D11*
X1781Y541D03*
X1840Y541D03*
D10*
X1855Y541D03*
D11*
X1905Y541D03*
X1969Y541D03*
D17*
X2019Y541D03*
D10*
X94Y546D03*
X243Y546D03*
D11*
X303Y546D03*
D26*
X427Y546D03*
D11*
X441Y546D03*
D17*
X461Y546D03*
D11*
X640Y546D03*
D10*
X670Y546D03*
X714Y546D03*
X774Y546D03*
X918Y546D03*
X933Y546D03*
D11*
X977Y546D03*
D10*
X997Y546D03*
X1012Y546D03*
D11*
X1076Y546D03*
X1091Y546D03*
X1136Y546D03*
D10*
X1166Y546D03*
D11*
X1255Y546D03*
D10*
X1270Y546D03*
D11*
X1305Y546D03*
X1364Y546D03*
D10*
X1379Y546D03*
D11*
X1399Y546D03*
D10*
X1449Y546D03*
X1468Y546D03*
X1483Y546D03*
X1518Y546D03*
D11*
X1533Y546D03*
D10*
X1548Y546D03*
X1597Y546D03*
D11*
X1612Y546D03*
D10*
X1632Y546D03*
D11*
X1682Y546D03*
X1835Y546D03*
D10*
X1855Y546D03*
D11*
X1905Y546D03*
D17*
X1984Y546D03*
D10*
X2039Y546D03*
D13*
X243Y551D03*
D20*
X303Y551D03*
X675Y551D03*
D13*
X704Y551D03*
D16*
X779Y551D03*
D20*
X799Y551D03*
D13*
X918Y551D03*
X933Y551D03*
X972Y551D03*
X1012Y551D03*
D20*
X1076Y551D03*
X1091Y551D03*
X1136Y551D03*
X1151Y551D03*
D13*
X1181Y551D03*
D20*
X1255Y551D03*
D13*
X1270Y551D03*
D20*
X1305Y551D03*
X1320Y551D03*
X1434Y551D03*
X1463Y551D03*
D13*
X1518Y551D03*
D20*
X1533Y551D03*
D13*
X1548Y551D03*
X1597Y551D03*
X1627Y551D03*
D20*
X1667Y551D03*
X1682Y551D03*
D13*
X1766Y551D03*
D20*
X1786Y551D03*
D13*
X1811Y551D03*
X1830Y551D03*
D16*
X1850Y551D03*
D20*
X1905Y551D03*
X1920Y551D03*
D13*
X1959Y551D03*
D10*
X109Y556D03*
D17*
X248Y556D03*
D15*
X280Y556D03*
D11*
X298Y556D03*
X412Y556D03*
D10*
X437Y556D03*
X456Y556D03*
D11*
X645Y556D03*
D17*
X709Y556D03*
X779Y556D03*
D10*
X804Y556D03*
X918Y556D03*
X933Y556D03*
D11*
X943Y556D03*
D18*
X962Y556D03*
D17*
X992Y556D03*
D10*
X1012Y556D03*
D11*
X1076Y556D03*
X1091Y556D03*
D10*
X1111Y556D03*
D11*
X1215Y556D03*
X1250Y556D03*
D10*
X1270Y556D03*
X1280Y556D03*
D11*
X1305Y556D03*
D10*
X1349Y556D03*
X1369Y556D03*
X1394Y556D03*
D11*
X1434Y556D03*
D10*
X1458Y556D03*
D17*
X1488Y556D03*
D10*
X1518Y556D03*
D11*
X1533Y556D03*
D10*
X1548Y556D03*
X1597Y556D03*
D17*
X1622Y556D03*
D11*
X1682Y556D03*
D17*
X1771Y556D03*
D11*
X1796Y556D03*
D15*
X1823Y556D03*
X1853Y556D03*
D11*
X1905Y556D03*
X1940Y556D03*
D15*
X1952Y556D03*
D10*
X1979Y556D03*
D11*
X2049Y556D03*
X79Y561D03*
D17*
X114Y561D03*
D15*
X251Y561D03*
D17*
X283Y561D03*
D15*
X295Y561D03*
D10*
X422Y561D03*
X714Y561D03*
X784Y561D03*
X804Y561D03*
X918Y561D03*
X987Y561D03*
X1012Y561D03*
X1067Y561D03*
D11*
X1076Y561D03*
D10*
X1131Y561D03*
D11*
X1156Y561D03*
X1176Y561D03*
D17*
X1275Y561D03*
D10*
X1349Y561D03*
X1369Y561D03*
X1394Y561D03*
X1493Y561D03*
X1518Y561D03*
D11*
X1533Y561D03*
D10*
X1582Y561D03*
X1597Y561D03*
D11*
X1667Y561D03*
X1682Y561D03*
D10*
X1776Y561D03*
D11*
X1905Y561D03*
X1974Y561D03*
X2054Y561D03*
D19*
X265Y566D03*
D11*
X293Y566D03*
D10*
X422Y566D03*
D11*
X451Y566D03*
X694Y566D03*
X719Y566D03*
X809Y566D03*
D10*
X918Y566D03*
D11*
X977Y566D03*
D10*
X1012Y566D03*
X1067Y566D03*
D11*
X1076Y566D03*
D17*
X1126Y566D03*
D11*
X1215Y566D03*
D19*
X1262Y566D03*
D17*
X1275Y566D03*
X1374Y566D03*
D11*
X1389Y566D03*
X1498Y566D03*
D10*
X1518Y566D03*
D11*
X1533Y566D03*
D10*
X1597Y566D03*
D11*
X1682Y566D03*
X1781Y566D03*
X1835Y566D03*
X1905Y566D03*
X1969Y566D03*
X2054Y566D03*
D20*
X263Y570D03*
D12*
X280Y570D03*
D20*
X417Y570D03*
X427Y570D03*
X446Y570D03*
X699Y570D03*
X719Y570D03*
X789Y570D03*
D13*
X918Y570D03*
X933Y570D03*
D32*
X962Y570D03*
D22*
X1014Y570D03*
D20*
X1076Y570D03*
D39*
X1116Y570D03*
D20*
X1161Y570D03*
X1171Y570D03*
D13*
X1220Y570D03*
D12*
X1253Y570D03*
D16*
X1275Y570D03*
D12*
X1352Y570D03*
D16*
X1374Y570D03*
D20*
X1389Y570D03*
X1434Y570D03*
D13*
X1449Y570D03*
D20*
X1503Y570D03*
D22*
X1515Y570D03*
D20*
X1533Y570D03*
D13*
X1582Y570D03*
X1597Y570D03*
D22*
X1610Y570D03*
D20*
X1667Y570D03*
D13*
X1677Y570D03*
D20*
X1692Y570D03*
X1761Y570D03*
D22*
X1793Y570D03*
X1828Y570D03*
D20*
X1860Y570D03*
X1905Y570D03*
D23*
X1950Y570D03*
D13*
X2004Y570D03*
D12*
X2017Y570D03*
D20*
X2054Y570D03*
D11*
X124Y575D03*
X273Y575D03*
D10*
X402Y575D03*
D15*
X414Y575D03*
D11*
X699Y575D03*
X719Y575D03*
X794Y575D03*
X814Y575D03*
D10*
X1617Y575D03*
X129Y580D03*
D11*
X397Y580D03*
D10*
X422Y580D03*
D11*
X441Y580D03*
X719Y580D03*
D10*
X819Y580D03*
X1012Y580D03*
D11*
X1687Y580D03*
X1781Y580D03*
X1801Y580D03*
X412Y585D03*
D10*
X526Y585D03*
D11*
X699Y585D03*
X719Y585D03*
X799Y585D03*
D10*
X819Y585D03*
D11*
X1091Y585D03*
X1225Y585D03*
D10*
X1607Y585D03*
D11*
X1821Y585D03*
D16*
X134Y590D03*
D20*
X392Y590D03*
X417Y590D03*
D13*
X437Y590D03*
D39*
X521Y590D03*
D12*
X543Y590D03*
X628Y590D03*
D22*
X652Y590D03*
D20*
X699Y590D03*
X719Y590D03*
X823Y590D03*
X1161Y590D03*
X1389Y590D03*
D17*
X134Y595D03*
D26*
X392Y595D03*
D11*
X412Y595D03*
X511Y595D03*
D10*
X556Y595D03*
X615Y595D03*
D11*
X660Y595D03*
D10*
X670Y595D03*
D11*
X699Y595D03*
X719Y595D03*
D10*
X784Y595D03*
X804Y595D03*
D26*
X134Y600D03*
D15*
X394Y600D03*
D11*
X432Y600D03*
X506Y600D03*
X561Y600D03*
D17*
X610Y600D03*
D11*
X665Y600D03*
X699Y600D03*
X719Y600D03*
X828Y600D03*
D10*
X139Y605D03*
D26*
X392Y605D03*
D11*
X407Y605D03*
X427Y605D03*
D10*
X501Y605D03*
X670Y605D03*
D11*
X719Y605D03*
X809Y605D03*
D20*
X124Y610D03*
D16*
X134Y610D03*
D20*
X144Y610D03*
D16*
X382Y610D03*
D20*
X397Y610D03*
X427Y610D03*
X566Y610D03*
D13*
X605Y610D03*
X670Y610D03*
D20*
X719Y610D03*
X814Y610D03*
X833Y610D03*
D18*
X129Y615D03*
D74*
X263Y615D03*
D10*
X402Y615D03*
X422Y615D03*
D11*
X432Y615D03*
X566Y615D03*
D10*
X605Y615D03*
D11*
X675Y615D03*
X719Y615D03*
X814Y615D03*
D10*
X838Y615D03*
X129Y620D03*
D17*
X362Y620D03*
X496Y620D03*
D11*
X675Y620D03*
X699Y620D03*
X719Y620D03*
D10*
X819Y620D03*
D11*
X397Y625D03*
X417Y625D03*
X427Y625D03*
D17*
X496Y625D03*
D11*
X675Y625D03*
X699Y625D03*
X719Y625D03*
D10*
X819Y625D03*
D13*
X402Y630D03*
X422Y630D03*
D20*
X432Y630D03*
D13*
X605Y630D03*
D20*
X675Y630D03*
X699Y630D03*
X719Y630D03*
D13*
X838Y630D03*
D15*
X161Y635D03*
D34*
X379Y635D03*
D11*
X427Y635D03*
X566Y635D03*
D10*
X605Y635D03*
D11*
X719Y635D03*
X814Y635D03*
X833Y635D03*
D19*
X141Y640D03*
D11*
X407Y640D03*
X427Y640D03*
D10*
X501Y640D03*
X670Y640D03*
D11*
X719Y640D03*
X506Y645D03*
X561Y645D03*
D17*
X610Y645D03*
D11*
X665Y645D03*
X719Y645D03*
X809Y645D03*
X828Y645D03*
D20*
X412Y650D03*
D12*
X508Y650D03*
D13*
X556Y650D03*
X615Y650D03*
D12*
X662Y650D03*
D20*
X699Y650D03*
X719Y650D03*
X794Y650D03*
D10*
X437Y655D03*
X516Y655D03*
D11*
X546Y655D03*
D19*
X623Y655D03*
X652Y655D03*
D11*
X699Y655D03*
X719Y655D03*
D10*
X804Y655D03*
D11*
X823Y655D03*
X417Y660D03*
X521Y660D03*
X541Y660D03*
D17*
X630Y660D03*
D11*
X699Y660D03*
X719Y660D03*
X799Y660D03*
D13*
X422Y665D03*
D20*
X441Y665D03*
X541Y665D03*
D16*
X630Y665D03*
D20*
X699Y665D03*
X719Y665D03*
D13*
X819Y665D03*
D11*
X541Y670D03*
D17*
X630Y670D03*
D11*
X699Y670D03*
X719Y670D03*
X794Y670D03*
X814Y670D03*
X427Y675D03*
X446Y675D03*
X521Y675D03*
X541Y675D03*
D17*
X630Y675D03*
D11*
X699Y675D03*
X719Y675D03*
X451Y680D03*
X521Y680D03*
X541Y680D03*
D17*
X630Y680D03*
D15*
X692Y680D03*
D11*
X729Y680D03*
X789Y680D03*
X809Y680D03*
D20*
X451Y685D03*
X506Y685D03*
X541Y685D03*
D16*
X630Y685D03*
D13*
X685Y685D03*
D20*
X734Y685D03*
D13*
X784Y685D03*
D10*
X437Y690D03*
X456Y690D03*
D11*
X541Y690D03*
D17*
X630Y690D03*
D11*
X680Y690D03*
D10*
X739Y690D03*
X784Y690D03*
X804Y690D03*
D11*
X486Y694D03*
X541Y694D03*
D17*
X630Y694D03*
D11*
X680Y694D03*
D17*
X779Y694D03*
D11*
X799Y694D03*
X441Y699D03*
D17*
X461Y699D03*
D11*
X521Y699D03*
X541Y699D03*
D17*
X630Y699D03*
X744Y699D03*
D10*
X764Y699D03*
D11*
X799Y699D03*
D13*
X466Y704D03*
X516Y704D03*
D20*
X541Y704D03*
D16*
X630Y704D03*
D20*
X675Y704D03*
D16*
X744Y704D03*
D13*
X774Y704D03*
D20*
X794Y704D03*
D11*
X446Y709D03*
D10*
X466Y709D03*
D11*
X521Y709D03*
X541Y709D03*
D17*
X630Y709D03*
D11*
X675Y709D03*
X451Y714D03*
X471Y714D03*
D10*
X516Y714D03*
D11*
X541Y714D03*
D17*
X630Y714D03*
D11*
X769Y714D03*
X789Y714D03*
D10*
X804Y714D03*
D11*
X451Y719D03*
D10*
X491Y719D03*
D11*
X511Y719D03*
X541Y719D03*
D17*
X630Y719D03*
X744Y719D03*
D10*
X764Y719D03*
X784Y719D03*
D13*
X456Y724D03*
X476Y724D03*
D22*
X504Y724D03*
D13*
X536Y724D03*
D16*
X630Y724D03*
X744Y724D03*
D20*
X754Y724D03*
D13*
X784Y724D03*
D17*
X496Y729D03*
X531Y729D03*
X630Y729D03*
D10*
X739Y729D03*
D11*
X759Y729D03*
D17*
X779Y729D03*
X461Y734D03*
D11*
X481Y734D03*
D10*
X491Y734D03*
D11*
X521Y734D03*
D17*
X630Y734D03*
D10*
X685Y734D03*
D11*
X734Y734D03*
X754Y734D03*
D10*
X466Y739D03*
X516Y739D03*
D17*
X630Y739D03*
D11*
X690Y739D03*
X729Y739D03*
X754Y739D03*
D10*
X774Y739D03*
D13*
X466Y744D03*
D12*
X508Y744D03*
D16*
X630Y744D03*
D42*
X712Y744D03*
D11*
X471Y749D03*
D10*
X501Y749D03*
D17*
X630Y749D03*
D11*
X769Y749D03*
D17*
X630Y754D03*
D11*
X734Y754D03*
D17*
X744Y754D03*
D10*
X764Y754D03*
X476Y759D03*
D17*
X496Y759D03*
X630Y759D03*
D16*
X630Y764D03*
D13*
X739Y764D03*
D20*
X759Y764D03*
D11*
X481Y769D03*
D10*
X501Y769D03*
D17*
X630Y769D03*
D11*
X734Y769D03*
X486Y774D03*
X506Y774D03*
D17*
X630Y774D03*
D11*
X734Y774D03*
X754Y774D03*
X769Y774D03*
D20*
X486Y779D03*
X506Y779D03*
D13*
X516Y779D03*
D16*
X630Y779D03*
D20*
X729Y779D03*
D13*
X749Y779D03*
D20*
X769Y779D03*
D10*
X491Y784D03*
D11*
X511Y784D03*
D17*
X630Y784D03*
D10*
X749Y784D03*
D17*
X630Y789D03*
D10*
X724Y789D03*
D17*
X744Y789D03*
X496Y794D03*
D75*
X573Y794D03*
D76*
X685Y794D03*
D13*
X491Y799D03*
X501Y799D03*
X739Y799D03*
D10*
X501Y804D03*
D11*
X506Y809D03*
D14*
X623Y814D03*
D77*
X55880Y45720D03*
X55880Y71120D03*
X55880Y96520D03*
X55880Y121920D03*
X55880Y147320D03*
X55880Y172720D03*
X81280Y45720D03*
X81280Y71120D03*
X81280Y96520D03*
X81280Y121920D03*
X81280Y147320D03*
X81280Y172720D03*
D78*
X40640Y281940D02*
X25400Y281940D01*
X25400Y307340D02*
X40640Y307340D01*
X40640Y332740D02*
X25400Y332740D01*
X50800Y444500D02*
X66040Y444500D01*
X66040Y469900D02*
X50800Y469900D01*
X50800Y495300D02*
X66040Y495300D01*
D79*
X167640Y277114D03*
X167640Y327406D03*
X142240Y302260D03*
D78*
X111760Y452120D02*
X96520Y452120D01*
X96520Y426720D02*
X111760Y426720D01*
D80*
X72440Y325120D03*
X110440Y325120D03*
D81*
X115940Y278620D03*
M02*
